Latin-Mizra-SemiBold.ufo
<glyph name="quotedbl" format="1">
  <advance width="306"/>
  <unicode hex="0022"/>
  <outline>
    <contour>
      <point x="269" y="312" type="line"/>
      <point x="269" y="404"/>
      <point x="270" y="471"/>
      <point x="281" y="549" type="curve"/>
      <point x="242" y="549"/>
      <point x="216" y="545"/>
      <point x="183" y="534" type="curve"/>
      <point x="183" y="375" type="line"/>
      <point x="205" y="355"/>
      <point x="226" y="335"/>
      <point x="244" y="312" type="curve"/>
    </contour>
    <contour>
      <point x="121" y="312" type="line"/>
      <point x="121" y="404"/>
      <point x="122" y="471"/>
      <point x="133" y="549" type="curve"/>
      <point x="94" y="549"/>
      <point x="68" y="545"/>
      <point x="35" y="534" type="curve"/>
      <point x="35" y="375" type="line"/>
      <point x="57" y="355"/>
      <point x="78" y="335"/>
      <point x="96" y="312" type="curve"/>
    </contour>
  </outline>
</glyph>
<glyph name="quotesingle" format="1">
  <advance width="158"/>
  <unicode hex="0027"/>
  <outline>
    <contour>
      <point x="121" y="312" type="line"/>
      <point x="121" y="402"/>
      <point x="122" y="471"/>
      <point x="133" y="549" type="curve"/>
      <point x="94" y="549"/>
      <point x="68" y="545"/>
      <point x="35" y="534" type="curve"/>
      <point x="35" y="375" type="line"/>
      <point x="57" y="355"/>
      <point x="78" y="335"/>
      <point x="96" y="312" type="curve"/>
    </contour>
  </outline>
</glyph>
<glyph name="asterisk" format="1">
  <advance width="404"/>
  <unicode hex="002A"/>
  <outline>
    <contour>
      <point x="214" y="269"/>
      <point x="243" y="275"/>
      <point x="279" y="287" type="curve"/>
      <point x="280" y="329"/>
      <point x="263" y="373"/>
      <point x="228" y="417" type="curve"/>
      <point x="284" y="416"/>
      <point x="321" y="414"/>
      <point x="368" y="403" type="curve"/>
      <point x="368" y="447"/>
      <point x="362" y="477"/>
      <point x="351" y="513" type="curve"/>
      <point x="307" y="514"/>
      <point x="263" y="497"/>
      <point x="220" y="461" type="curve"/>
      <point x="220" y="517"/>
      <point x="222" y="554"/>
      <point x="234" y="602" type="curve"/>
      <point x="188" y="602"/>
      <point x="159" y="597"/>
      <point x="122" y="584" type="curve"/>
      <point x="121" y="540"/>
      <point x="139" y="496"/>
      <point x="175" y="454" type="curve"/>
      <point x="120" y="454"/>
      <point x="83" y="456"/>
      <point x="35" y="467" type="curve"/>
      <point x="35" y="422"/>
      <point x="40" y="393"/>
      <point x="53" y="356" type="curve"/>
      <point x="96" y="355"/>
      <point x="140" y="372"/>
      <point x="183" y="408" type="curve"/>
      <point x="182" y="352"/>
      <point x="180" y="316"/>
      <point x="169" y="269" type="curve"/>
    </contour>
  </outline>
</glyph>
<glyph name="comma" format="1">
  <advance width="212"/>
  <unicode hex="002C"/>
  <outline>
    <contour>
      <point x="120" y="-60"/>
      <point x="164" y="18"/>
      <point x="172" y="103" type="curve"/>
      <point x="143" y="133" type="line"/>
      <point x="110" y="133"/>
      <point x="68" y="121"/>
      <point x="39" y="103" type="curve"/>
      <point x="51" y="77"/>
      <point x="57" y="46"/>
      <point x="57" y="10" type="curve" smooth="yes"/>
      <point x="57" y="-29"/>
      <point x="44" y="-68"/>
      <point x="22" y="-95" type="curve"/>
      <point x="45" y="-120" type="line"/>
    </contour>
  </outline>
</glyph>
<glyph name="hyphen" format="1">
  <advance width="413"/>
  <unicode hex="002D"/>
  <outline>
    <contour>
      <point x="87" y="138"/>
      <point x="151" y="147"/>
      <point x="212" y="147" type="curve" smooth="yes"/>
      <point x="262" y="147"/>
      <point x="312" y="146"/>
      <point x="368" y="142" type="curve"/>
      <point x="368" y="186"/>
      <point x="365" y="224"/>
      <point x="352" y="268" type="curve"/>
      <point x="326" y="258"/>
      <point x="261" y="249"/>
      <point x="201" y="249" type="curve" smooth="yes"/>
      <point x="151" y="249"/>
      <point x="101" y="250"/>
      <point x="45" y="254" type="curve"/>
      <point x="45" y="210"/>
      <point x="49" y="172"/>
      <point x="61" y="128" type="curve"/>
    </contour>
  </outline>
</glyph>
<glyph name="period" format="1">
  <advance width="210"/>
  <unicode hex="002E"/>
  <outline>
    <contour>
      <point x="136" y="11"/>
      <point x="162" y="37"/>
      <point x="187" y="68" type="curve"/>
      <point x="156" y="93"/>
      <point x="130" y="119"/>
      <point x="105" y="150" type="curve"/>
      <point x="74" y="125"/>
      <point x="48" y="99"/>
      <point x="22" y="68" type="curve"/>
      <point x="53" y="42"/>
      <point x="79" y="16"/>
      <point x="105" y="-15" type="curve"/>
    </contour>
  </outline>
</glyph>
<glyph name="three" format="1">
  <advance width="490"/>
  <unicode hex="0033"/>
  <outline>
    <contour>
      <point x="374" y="-11"/>
      <point x="455" y="48"/>
      <point x="455" y="157" type="curve" smooth="yes"/>
      <point x="455" y="237"/>
      <point x="389" y="300"/>
      <point x="295" y="309" type="curve"/>
      <point x="362" y="360" type="line" smooth="yes"/>
      <point x="418" y="402"/>
      <point x="440" y="435"/>
      <point x="440" y="475" type="curve" smooth="yes"/>
      <point x="440" y="504"/>
      <point x="427" y="531"/>
      <point x="404" y="546" type="curve"/>
      <point x="367" y="525"/>
      <point x="313" y="516"/>
      <point x="211" y="516" type="curve" smooth="yes"/>
      <point x="139" y="516"/>
      <point x="82" y="520"/>
      <point x="55" y="527" type="curve"/>
      <point x="55" y="486"/>
      <point x="65" y="434"/>
      <point x="80" y="399" type="curve"/>
      <point x="103" y="412"/>
      <point x="132" y="417"/>
      <point x="185" y="417" type="curve" smooth="yes"/>
      <point x="262" y="417"/>
      <point x="317" y="416"/>
      <point x="347" y="415" type="curve"/>
      <point x="180" y="288" type="line" smooth="yes"/>
      <point x="158" y="271"/>
      <point x="144" y="254"/>
      <point x="139" y="238" type="curve"/>
      <point x="139" y="228"/>
      <point x="166" y="212"/>
      <point x="183" y="212" type="curve"/>
      <point x="200" y="239"/>
      <point x="231" y="258"/>
      <point x="260" y="258" type="curve"/>
      <point x="306" y="241"/>
      <point x="332" y="204"/>
      <point x="332" y="157" type="curve" smooth="yes"/>
      <point x="332" y="94"/>
      <point x="287" y="57"/>
      <point x="210" y="57" type="curve" smooth="yes"/>
      <point x="145" y="57"/>
      <point x="85" y="80"/>
      <point x="53" y="118" type="curve"/>
      <point x="40" y="84"/>
      <point x="35" y="61"/>
      <point x="35" y="35" type="curve"/>
      <point x="87" y="5"/>
      <point x="152" y="-11"/>
      <point x="221" y="-11" type="curve" smooth="yes"/>
    </contour>
  </outline>
</glyph>
<glyph name="four" format="1">
  <advance width="494"/>
  <unicode hex="0034"/>
  <outline>
    <contour>
      <point x="370" y="-6"/>
      <point x="393" y="-4"/>
      <point x="414" y="0" type="curve"/>
      <point x="405" y="24"/>
      <point x="401" y="57"/>
      <point x="399" y="110" type="curve"/>
      <point x="444" y="104" type="line"/>
      <point x="459" y="137"/>
      <point x="469" y="185"/>
      <point x="469" y="222" type="curve"/>
      <point x="452" y="215"/>
      <point x="429" y="211"/>
      <point x="399" y="208" type="curve"/>
      <point x="401" y="259"/>
      <point x="405" y="311"/>
      <point x="409" y="343" type="curve"/>
      <point x="382" y="347"/>
      <point x="357" y="349"/>
      <point x="336" y="349" type="curve" smooth="yes"/>
      <point x="314" y="349"/>
      <point x="292" y="347"/>
      <point x="270" y="343" type="curve"/>
      <point x="280" y="315"/>
      <point x="285" y="277"/>
      <point x="286" y="204" type="curve"/>
      <point x="227" y="204"/>
      <point x="166" y="205"/>
      <point x="115" y="206" type="curve"/>
      <point x="221" y="368"/>
      <point x="314" y="471"/>
      <point x="365" y="515" type="curve"/>
      <point x="324" y="539"/>
      <point x="282" y="546"/>
      <point x="228" y="546" type="curve"/>
      <point x="176" y="463"/>
      <point x="84" y="310"/>
      <point x="42" y="237" type="curve" smooth="yes"/>
      <point x="24" y="205"/>
      <point x="15" y="178"/>
      <point x="15" y="149" type="curve" smooth="yes"/>
      <point x="15" y="127"/>
      <point x="24" y="108"/>
      <point x="42" y="95" type="curve"/>
      <point x="80" y="110"/>
      <point x="134" y="115"/>
      <point x="232" y="115" type="curve" smooth="yes"/>
      <point x="284" y="115" type="line"/>
      <point x="283" y="71"/>
      <point x="279" y="28"/>
      <point x="275" y="0" type="curve"/>
      <point x="303" y="-4"/>
      <point x="327" y="-6"/>
      <point x="349" y="-6" type="curve" smooth="yes"/>
    </contour>
  </outline>
</glyph>
<glyph name="six" format="1">
  <advance width="508"/>
  <unicode hex="0036"/>
  <outline>
    <contour>
      <point x="383" y="-9"/>
      <point x="475" y="64"/>
      <point x="475" y="168" type="curve" smooth="yes"/>
      <point x="475" y="270"/>
      <point x="401" y="338"/>
      <point x="292" y="338" type="curve" smooth="yes"/>
      <point x="245" y="338"/>
      <point x="201" y="323"/>
      <point x="160" y="296" type="curve"/>
      <point x="172" y="382"/>
      <point x="210" y="439"/>
      <point x="268" y="459" type="curve"/>
      <point x="298" y="459"/>
      <point x="357" y="428"/>
      <point x="403" y="388" type="curve"/>
      <point x="424" y="413"/>
      <point x="443" y="472"/>
      <point x="443" y="509" type="curve"/>
      <point x="408" y="525"/>
      <point x="365" y="533"/>
      <point x="315" y="533" type="curve" smooth="yes"/>
      <point x="130" y="533"/>
      <point x="32" y="426"/>
      <point x="32" y="223" type="curve" smooth="yes"/>
      <point x="32" y="84"/>
      <point x="120" y="-9"/>
      <point x="252" y="-9" type="curve" smooth="yes"/>
    </contour>
    <contour>
      <point x="193" y="57"/>
      <point x="154" y="118"/>
      <point x="154" y="221" type="curve" smooth="yes"/>
      <point x="154" y="228" type="line"/>
      <point x="179" y="249"/>
      <point x="209" y="264"/>
      <point x="242" y="273" type="curve"/>
      <point x="310" y="273"/>
      <point x="353" y="234"/>
      <point x="353" y="171" type="curve" smooth="yes"/>
      <point x="353" y="102"/>
      <point x="316" y="57"/>
      <point x="259" y="57" type="curve" smooth="yes"/>
    </contour>
  </outline>
</glyph>
<glyph name="nine" format="1">
  <advance width="498"/>
  <unicode hex="0039"/>
  <outline>
    <contour>
      <point x="371" y="-11"/>
      <point x="465" y="94"/>
      <point x="465" y="286" type="curve" smooth="yes"/>
      <point x="465" y="434"/>
      <point x="375" y="533"/>
      <point x="241" y="533" type="curve" smooth="yes"/>
      <point x="118" y="533"/>
      <point x="32" y="454"/>
      <point x="32" y="341" type="curve" smooth="yes"/>
      <point x="32" y="237"/>
      <point x="102" y="167"/>
      <point x="206" y="167" type="curve" smooth="yes"/>
      <point x="253" y="167"/>
      <point x="300" y="182"/>
      <point x="341" y="211" type="curve"/>
      <point x="332" y="117"/>
      <point x="287" y="58"/>
      <point x="199" y="58" type="curve" smooth="yes"/>
      <point x="138" y="58"/>
      <point x="82" y="81"/>
      <point x="52" y="118" type="curve"/>
      <point x="40" y="88"/>
      <point x="35" y="65"/>
      <point x="35" y="35" type="curve"/>
      <point x="81" y="5"/>
      <point x="139" y="-11"/>
      <point x="200" y="-11" type="curve" smooth="yes"/>
    </contour>
    <contour>
      <point x="193" y="231"/>
      <point x="154" y="276"/>
      <point x="154" y="346" type="curve" smooth="yes"/>
      <point x="154" y="410"/>
      <point x="188" y="452"/>
      <point x="241" y="452" type="curve" smooth="yes"/>
      <point x="302" y="452"/>
      <point x="338" y="389"/>
      <point x="343" y="276" type="curve"/>
      <point x="317" y="256"/>
      <point x="288" y="241"/>
      <point x="256" y="231" type="curve"/>
    </contour>
  </outline>
</glyph>
<glyph name="A" format="1">
  <advance width="532"/>
  <unicode hex="0041"/>
  <outline>
    <contour>
      <point x="481" y="-5"/>
      <point x="505" y="-3"/>
      <point x="528" y="2" type="curve"/>
      <point x="487" y="75"/>
      <point x="362" y="411"/>
      <point x="323" y="529" type="curve"/>
      <point x="287" y="535"/>
      <point x="250" y="535"/>
      <point x="209" y="529" type="curve"/>
      <point x="170" y="411"/>
      <point x="45" y="75"/>
      <point x="4" y="2" type="curve"/>
      <point x="20" y="-2"/>
      <point x="36" y="-4"/>
      <point x="51" y="-4" type="curve" smooth="yes"/>
      <point x="63" y="-4"/>
      <point x="76" y="-2"/>
      <point x="91" y="2" type="curve"/>
      <point x="101" y="31"/>
      <point x="116" y="75"/>
      <point x="135" y="125" type="curve"/>
      <point x="156" y="128"/>
      <point x="189" y="129"/>
      <point x="231" y="129" type="curve" smooth="yes"/>
      <point x="269" y="129"/>
      <point x="312" y="128"/>
      <point x="347" y="126" type="curve"/>
      <point x="366" y="76"/>
      <point x="381" y="31"/>
      <point x="391" y="2" type="curve"/>
      <point x="417" y="-3"/>
      <point x="439" y="-5"/>
      <point x="458" y="-5" type="curve" smooth="yes"/>
    </contour>
    <contour>
      <point x="235" y="198"/>
      <point x="195" y="199"/>
      <point x="162" y="201" type="curve"/>
      <point x="189" y="274"/>
      <point x="218" y="350"/>
      <point x="241" y="404" type="curve"/>
      <point x="262" y="355"/>
      <point x="291" y="277"/>
      <point x="320" y="200" type="curve"/>
      <point x="305" y="199"/>
      <point x="287" y="198"/>
      <point x="269" y="198" type="curve" smooth="yes"/>
    </contour>
    <contour>
      <point x="528" y="2" type="move" name="ogonek"/>
    </contour>
    <contour>
      <point x="266" y="0" type="move" name="bottom"/>
    </contour>
    <contour>
      <point x="266" y="527" type="move" name="top"/>
    </contour>
  </outline>
</glyph>
<glyph name="B" format="1">
  <advance width="530"/>
  <unicode hex="0042"/>
  <outline>
    <contour>
      <point x="414" y="-12"/>
      <point x="495" y="44"/>
      <point x="495" y="144" type="curve" smooth="yes"/>
      <point x="495" y="205"/>
      <point x="455" y="253"/>
      <point x="389" y="279" type="curve"/>
      <point x="439" y="304"/>
      <point x="470" y="344"/>
      <point x="470" y="391" type="curve" smooth="yes"/>
      <point x="470" y="482"/>
      <point x="397" y="532"/>
      <point x="264" y="532" type="curve" smooth="yes"/>
      <point x="187" y="532"/>
      <point x="103" y="521"/>
      <point x="52" y="505" type="curve"/>
      <point x="63" y="480"/>
      <point x="68" y="417"/>
      <point x="68" y="305" type="curve" smooth="yes"/>
      <point x="68" y="199"/>
      <point x="64" y="72"/>
      <point x="59" y="15" type="curve"/>
      <point x="109" y="-1"/>
      <point x="192" y="-12"/>
      <point x="268" y="-12" type="curve" smooth="yes"/>
    </contour>
    <contour>
      <point x="232" y="46"/>
      <point x="208" y="50"/>
      <point x="185" y="58" type="curve"/>
      <point x="182" y="96"/>
      <point x="180" y="149"/>
      <point x="180" y="220" type="curve"/>
      <point x="224" y="235"/>
      <point x="267" y="245"/>
      <point x="292" y="245" type="curve"/>
      <point x="344" y="225"/>
      <point x="373" y="190"/>
      <point x="373" y="144" type="curve" smooth="yes"/>
      <point x="373" y="79"/>
      <point x="334" y="46"/>
      <point x="257" y="46" type="curve" smooth="yes"/>
    </contour>
    <contour>
      <point x="182" y="342"/>
      <point x="184" y="398"/>
      <point x="187" y="445" type="curve"/>
      <point x="208" y="451"/>
      <point x="229" y="454"/>
      <point x="253" y="454" type="curve" smooth="yes"/>
      <point x="316" y="454"/>
      <point x="348" y="430"/>
      <point x="348" y="380" type="curve" smooth="yes"/>
      <point x="348" y="350"/>
      <point x="329" y="320"/>
      <point x="295" y="298" type="curve"/>
      <point x="253" y="300"/>
      <point x="214" y="298"/>
      <point x="181" y="290" type="curve"/>
    </contour>
  </outline>
</glyph>
<glyph name="E" format="1">
  <advance width="473"/>
  <unicode hex="0045"/>
  <outline>
    <contour>
      <point x="97" y="2"/>
      <point x="154" y="4"/>
      <point x="228" y="4" type="curve" smooth="yes"/>
      <point x="298" y="4"/>
      <point x="370" y="2"/>
      <point x="419" y="-3" type="curve"/>
      <point x="432" y="17"/>
      <point x="440" y="78"/>
      <point x="440" y="118" type="curve"/>
      <point x="399" y="101"/>
      <point x="332" y="91"/>
      <point x="273" y="91" type="curve" smooth="yes"/>
      <point x="242" y="91"/>
      <point x="210" y="94"/>
      <point x="184" y="99" type="curve"/>
      <point x="181" y="132"/>
      <point x="180" y="174"/>
      <point x="180" y="228" type="curve"/>
      <point x="237" y="229"/>
      <point x="304" y="226"/>
      <point x="384" y="221" type="curve"/>
      <point x="386" y="236"/>
      <point x="388" y="253"/>
      <point x="388" y="266" type="curve" smooth="yes"/>
      <point x="388" y="281"/>
      <point x="386" y="297"/>
      <point x="384" y="310" type="curve"/>
      <point x="345" y="303"/>
      <point x="319" y="299"/>
      <point x="247" y="299" type="curve" smooth="yes"/>
      <point x="226" y="299"/>
      <point x="203" y="300"/>
      <point x="181" y="301" type="curve"/>
      <point x="182" y="344"/>
      <point x="184" y="388"/>
      <point x="186" y="427" type="curve"/>
      <point x="210" y="431"/>
      <point x="240" y="433"/>
      <point x="268" y="433" type="curve" smooth="yes"/>
      <point x="320" y="433"/>
      <point x="379" y="424"/>
      <point x="415" y="406" type="curve"/>
      <point x="428" y="425"/>
      <point x="436" y="487"/>
      <point x="436" y="527" type="curve"/>
      <point x="382" y="522"/>
      <point x="301" y="520"/>
      <point x="223" y="520" type="curve" smooth="yes"/>
      <point x="157" y="520"/>
      <point x="92" y="522"/>
      <point x="52" y="527" type="curve"/>
      <point x="65" y="479"/>
      <point x="68" y="423"/>
      <point x="68" y="300" type="curve" smooth="yes"/>
      <point x="68" y="186"/>
      <point x="65" y="92"/>
      <point x="57" y="-3" type="curve"/>
    </contour>
    <contour>
      <point x="419" y="17" type="move" name="ogonek"/>
    </contour>
    <contour>
      <point x="252" y="527" type="move" name="top"/>
    </contour>
    <contour>
      <point x="20" y="527" type="move" name="topleft"/>
    </contour>
    <contour>
      <point x="237" y="0" type="move" name="bottom"/>
    </contour>
  </outline>
</glyph>
<glyph name="F" format="1">
  <advance width="434"/>
  <unicode hex="0046"/>
  <outline>
    <contour>
      <point x="152" y="-6"/>
      <point x="175" y="-4"/>
      <point x="196" y="0" type="curve"/>
      <point x="185" y="29"/>
      <point x="180" y="103"/>
      <point x="180" y="228" type="curve"/>
      <point x="234" y="229"/>
      <point x="292" y="226"/>
      <point x="364" y="221" type="curve"/>
      <point x="366" y="239"/>
      <point x="368" y="254"/>
      <point x="368" y="266" type="curve" smooth="yes"/>
      <point x="368" y="279"/>
      <point x="366" y="293"/>
      <point x="364" y="310" type="curve"/>
      <point x="324" y="302"/>
      <point x="299" y="299"/>
      <point x="237" y="299" type="curve" smooth="yes"/>
      <point x="219" y="299"/>
      <point x="197" y="300"/>
      <point x="179" y="301" type="curve"/>
      <point x="180" y="344"/>
      <point x="181" y="397"/>
      <point x="183" y="427" type="curve"/>
      <point x="208" y="431"/>
      <point x="239" y="433"/>
      <point x="268" y="433" type="curve" smooth="yes"/>
      <point x="316" y="433"/>
      <point x="366" y="424"/>
      <point x="395" y="406" type="curve"/>
      <point x="407" y="423"/>
      <point x="416" y="483"/>
      <point x="416" y="527" type="curve"/>
      <point x="371" y="522"/>
      <point x="302" y="520"/>
      <point x="223" y="520" type="curve" smooth="yes"/>
      <point x="154" y="520"/>
      <point x="96" y="522"/>
      <point x="52" y="527" type="curve"/>
      <point x="65" y="474"/>
      <point x="68" y="411"/>
      <point x="68" y="275" type="curve" smooth="yes"/>
      <point x="68" y="183"/>
      <point x="63" y="62"/>
      <point x="57" y="0" type="curve"/>
      <point x="85" y="-4"/>
      <point x="109" y="-6"/>
      <point x="131" y="-6" type="curve" smooth="yes"/>
    </contour>
  </outline>
</glyph>
<glyph name="H" format="1">
  <advance width="564"/>
  <unicode hex="0048"/>
  <outline>
    <contour>
      <point x="152" y="-6"/>
      <point x="175" y="-4"/>
      <point x="196" y="0" type="curve"/>
      <point x="186" y="29"/>
      <point x="180" y="103"/>
      <point x="180" y="226" type="curve"/>
      <point x="203" y="227"/>
      <point x="231" y="228"/>
      <point x="264" y="228" type="curve" smooth="yes"/>
      <point x="301" y="228"/>
      <point x="344" y="227"/>
      <point x="382" y="226" type="curve"/>
      <point x="381" y="141"/>
      <point x="377" y="52"/>
      <point x="372" y="0" type="curve"/>
      <point x="400" y="-4"/>
      <point x="424" y="-6"/>
      <point x="446" y="-6" type="curve" smooth="yes"/>
      <point x="467" y="-6"/>
      <point x="490" y="-4"/>
      <point x="511" y="0" type="curve"/>
      <point x="501" y="30"/>
      <point x="495" y="111"/>
      <point x="495" y="232" type="curve" smooth="yes"/>
      <point x="495" y="331"/>
      <point x="500" y="457"/>
      <point x="506" y="527" type="curve"/>
      <point x="480" y="531"/>
      <point x="458" y="533"/>
      <point x="438" y="533" type="curve" smooth="yes"/>
      <point x="414" y="533"/>
      <point x="389" y="531"/>
      <point x="367" y="527" type="curve"/>
      <point x="378" y="498"/>
      <point x="383" y="425"/>
      <point x="383" y="301" type="curve"/>
      <point x="363" y="300"/>
      <point x="339" y="299"/>
      <point x="312" y="299" type="curve" smooth="yes"/>
      <point x="268" y="299"/>
      <point x="221" y="300"/>
      <point x="181" y="302" type="curve"/>
      <point x="183" y="386"/>
      <point x="187" y="475"/>
      <point x="191" y="527" type="curve"/>
      <point x="165" y="531"/>
      <point x="143" y="533"/>
      <point x="123" y="533" type="curve" smooth="yes"/>
      <point x="99" y="533"/>
      <point x="74" y="531"/>
      <point x="52" y="527" type="curve"/>
      <point x="63" y="497"/>
      <point x="68" y="417"/>
      <point x="68" y="295" type="curve" smooth="yes"/>
      <point x="68" y="197"/>
      <point x="63" y="70"/>
      <point x="57" y="0" type="curve"/>
      <point x="85" y="-4"/>
      <point x="109" y="-6"/>
      <point x="131" y="-6" type="curve" smooth="yes"/>
    </contour>
    <contour>
      <point x="282" y="414" type="move" name="center"/>
    </contour>
    <contour>
      <point x="282" y="527" type="move" name="top"/>
    </contour>
    <contour>
      <point x="18" y="527" type="move" name="topleft"/>
    </contour>
    <contour>
      <point x="282" y="0" type="move" name="bottom"/>
    </contour>
  </outline>
</glyph>
<glyph name="I" format="1">
  <advance width="249"/>
  <unicode hex="0049"/>
  <outline>
    <contour>
      <point x="152" y="-6"/>
      <point x="175" y="-4"/>
      <point x="196" y="0" type="curve"/>
      <point x="185" y="30"/>
      <point x="180" y="105"/>
      <point x="180" y="227" type="curve" smooth="yes"/>
      <point x="180" y="328"/>
      <point x="185" y="459"/>
      <point x="191" y="527" type="curve"/>
      <point x="165" y="531"/>
      <point x="143" y="533"/>
      <point x="123" y="533" type="curve" smooth="yes"/>
      <point x="99" y="533"/>
      <point x="74" y="531"/>
      <point x="52" y="527" type="curve"/>
      <point x="63" y="497"/>
      <point x="68" y="417"/>
      <point x="68" y="295" type="curve" smooth="yes"/>
      <point x="68" y="197"/>
      <point x="63" y="70"/>
      <point x="57" y="0" type="curve"/>
      <point x="85" y="-4"/>
      <point x="109" y="-6"/>
      <point x="131" y="-6" type="curve" smooth="yes"/>
    </contour>
    <contour>
      <point x="197" y="0" type="move" name="ogonek"/>
    </contour>
    <contour>
      <point x="125" y="527" type="move" name="top"/>
    </contour>
    <contour>
      <point x="20" y="527" type="move" name="topleft"/>
    </contour>
    <contour>
      <point x="125" y="0" type="move" name="bottom"/>
    </contour>
  </outline>
</glyph>
<glyph name="M" format="1">
  <advance width="713"/>
  <unicode hex="004D"/>
  <outline>
    <contour>
      <point x="116" y="-6"/>
      <point x="133" y="-4"/>
      <point x="148" y="0" type="curve"/>
      <point x="141" y="30"/>
      <point x="137" y="107"/>
      <point x="137" y="227" type="curve" smooth="yes"/>
      <point x="137" y="268"/>
      <point x="138" y="313"/>
      <point x="139" y="355" type="curve"/>
      <point x="199" y="230"/>
      <point x="270" y="73"/>
      <point x="301" y="0" type="curve"/>
      <point x="309" y="-3"/>
      <point x="317" y="-5"/>
      <point x="326" y="-5" type="curve" smooth="yes"/>
      <point x="335" y="-5"/>
      <point x="343" y="-3"/>
      <point x="352" y="0" type="curve"/>
      <point x="386" y="80"/>
      <point x="467" y="260"/>
      <point x="531" y="389" type="curve"/>
      <point x="532" y="363"/>
      <point x="532" y="333"/>
      <point x="532" y="300" type="curve" smooth="yes"/>
      <point x="532" y="196"/>
      <point x="527" y="66"/>
      <point x="521" y="0" type="curve"/>
      <point x="547" y="-4"/>
      <point x="570" y="-6"/>
      <point x="590" y="-6" type="curve" smooth="yes"/>
      <point x="613" y="-6"/>
      <point x="637" y="-4"/>
      <point x="660" y="0" type="curve"/>
      <point x="649" y="30"/>
      <point x="644" y="107"/>
      <point x="644" y="227" type="curve" smooth="yes"/>
      <point x="644" y="331"/>
      <point x="649" y="461"/>
      <point x="655" y="527" type="curve"/>
      <point x="628" y="531"/>
      <point x="603" y="533"/>
      <point x="582" y="533" type="curve" smooth="yes"/>
      <point x="558" y="533"/>
      <point x="533" y="531"/>
      <point x="516" y="527" type="curve"/>
      <point x="485" y="453"/>
      <point x="407" y="281"/>
      <point x="351" y="166" type="curve"/>
      <point x="298" y="274"/>
      <point x="218" y="452"/>
      <point x="187" y="527" type="curve"/>
      <point x="162" y="531"/>
      <point x="136" y="533"/>
      <point x="116" y="533" type="curve" smooth="yes"/>
      <point x="94" y="533"/>
      <point x="73" y="531"/>
      <point x="52" y="527" type="curve"/>
      <point x="61" y="474"/>
      <point x="64" y="405"/>
      <point x="64" y="295" type="curve" smooth="yes"/>
      <point x="64" y="193"/>
      <point x="61" y="65"/>
      <point x="56" y="0" type="curve"/>
      <point x="73" y="-4"/>
      <point x="88" y="-6"/>
      <point x="101" y="-6" type="curve" smooth="yes"/>
    </contour>
  </outline>
</glyph>
<glyph name="P" format="1">
  <advance width="494"/>
  <unicode hex="0050"/>
  <outline>
    <contour>
      <point x="152" y="-6"/>
      <point x="175" y="-4"/>
      <point x="196" y="0" type="curve"/>
      <point x="187" y="25"/>
      <point x="182" y="81"/>
      <point x="181" y="165" type="curve"/>
      <point x="200" y="162"/>
      <point x="221" y="160"/>
      <point x="243" y="160" type="curve" smooth="yes"/>
      <point x="377" y="160"/>
      <point x="470" y="240"/>
      <point x="470" y="356" type="curve" smooth="yes"/>
      <point x="470" y="469"/>
      <point x="393" y="532"/>
      <point x="253" y="532" type="curve" smooth="yes"/>
      <point x="177" y="532"/>
      <point x="96" y="521"/>
      <point x="52" y="505" type="curve"/>
      <point x="63" y="478"/>
      <point x="68" y="406"/>
      <point x="68" y="295" type="curve" smooth="yes"/>
      <point x="68" y="193"/>
      <point x="63" y="65"/>
      <point x="57" y="0" type="curve"/>
      <point x="85" y="-4"/>
      <point x="109" y="-6"/>
      <point x="131" y="-6" type="curve" smooth="yes"/>
    </contour>
    <contour>
      <point x="256" y="224"/>
      <point x="219" y="232"/>
      <point x="180" y="244" type="curve"/>
      <point x="180" y="313"/>
      <point x="183" y="390"/>
      <point x="187" y="449" type="curve"/>
      <point x="201" y="453"/>
      <point x="216" y="454"/>
      <point x="232" y="454" type="curve" smooth="yes"/>
      <point x="306" y="454"/>
      <point x="348" y="422"/>
      <point x="348" y="348" type="curve" smooth="yes"/>
      <point x="348" y="291"/>
      <point x="318" y="244"/>
      <point x="280" y="224" type="curve"/>
    </contour>
    <contour>
      <point x="249" y="527" type="move" name="top"/>
    </contour>
    <contour>
      <point x="249" y="0" type="move" name="bottom"/>
    </contour>
  </outline>
</glyph>
<glyph name="R" format="1">
  <advance width="513"/>
  <unicode hex="0052"/>
  <outline>
    <contour>
      <point x="152" y="-6"/>
      <point x="175" y="-4"/>
      <point x="196" y="0" type="curve"/>
      <point x="187" y="27"/>
      <point x="182" y="89"/>
      <point x="180" y="185" type="curve"/>
      <point x="201" y="182"/>
      <point x="235" y="179"/>
      <point x="257" y="181" type="curve"/>
      <point x="302" y="95"/>
      <point x="335" y="28"/>
      <point x="349" y="-6" type="curve"/>
      <point x="404" y="-6"/>
      <point x="449" y="-1"/>
      <point x="495" y="15" type="curve"/>
      <point x="459" y="45"/>
      <point x="414" y="120"/>
      <point x="371" y="207" type="curve"/>
      <point x="433" y="237"/>
      <point x="470" y="290"/>
      <point x="470" y="356" type="curve" smooth="yes"/>
      <point x="470" y="469"/>
      <point x="393" y="532"/>
      <point x="253" y="532" type="curve" smooth="yes"/>
      <point x="177" y="532"/>
      <point x="96" y="521"/>
      <point x="52" y="505" type="curve"/>
      <point x="63" y="478"/>
      <point x="68" y="406"/>
      <point x="68" y="295" type="curve" smooth="yes"/>
      <point x="68" y="198"/>
      <point x="63" y="65"/>
      <point x="57" y="0" type="curve"/>
      <point x="85" y="-4"/>
      <point x="109" y="-6"/>
      <point x="131" y="-6" type="curve" smooth="yes"/>
    </contour>
    <contour>
      <point x="256" y="244"/>
      <point x="219" y="253"/>
      <point x="180" y="265" type="curve"/>
      <point x="181" y="328"/>
      <point x="183" y="396"/>
      <point x="187" y="449" type="curve"/>
      <point x="201" y="453"/>
      <point x="216" y="454"/>
      <point x="232" y="454" type="curve" smooth="yes"/>
      <point x="306" y="454"/>
      <point x="348" y="422"/>
      <point x="348" y="348" type="curve" smooth="yes"/>
      <point x="348" y="300"/>
      <point x="318" y="264"/>
      <point x="280" y="244" type="curve"/>
    </contour>
    <contour>
      <point x="258" y="527" type="move" name="top"/>
    </contour>
    <contour>
      <point x="258" y="0" type="move" name="bottom"/>
    </contour>
  </outline>
</glyph>
<glyph name="S" format="1">
  <advance width="461"/>
  <unicode hex="0053"/>
  <outline>
    <contour>
      <point x="359" y="-11"/>
      <point x="429" y="45"/>
      <point x="429" y="141" type="curve" smooth="yes"/>
      <point x="429" y="314"/>
      <point x="158" y="308"/>
      <point x="158" y="409" type="curve" smooth="yes"/>
      <point x="158" y="441"/>
      <point x="185" y="461"/>
      <point x="205" y="465" type="curve"/>
      <point x="247" y="465"/>
      <point x="314" y="431"/>
      <point x="371" y="388" type="curve"/>
      <point x="391" y="416"/>
      <point x="409" y="472"/>
      <point x="409" y="509" type="curve"/>
      <point x="366" y="525"/>
      <point x="311" y="533"/>
      <point x="250" y="533" type="curve" smooth="yes"/>
      <point x="119" y="533"/>
      <point x="36" y="474"/>
      <point x="36" y="388" type="curve" smooth="yes"/>
      <point x="36" y="218"/>
      <point x="307" y="215"/>
      <point x="307" y="122" type="curve" smooth="yes"/>
      <point x="307" y="81"/>
      <point x="273" y="57"/>
      <point x="210" y="57" type="curve" smooth="yes"/>
      <point x="143" y="57"/>
      <point x="82" y="76"/>
      <point x="48" y="108" type="curve"/>
      <point x="36" y="82"/>
      <point x="31" y="59"/>
      <point x="31" y="25" type="curve"/>
      <point x="79" y="3"/>
      <point x="142" y="-11"/>
      <point x="217" y="-11" type="curve" smooth="yes"/>
    </contour>
    <contour>
      <point x="225" y="527" type="move" name="top"/>
    </contour>
    <contour>
      <point x="225" y="0" type="move" name="bottom"/>
    </contour>
  </outline>
</glyph>
<glyph name="T" format="1">
  <advance width="451"/>
  <unicode hex="0054"/>
  <outline>
    <contour>
      <point x="255" y="-6"/>
      <point x="280" y="-4"/>
      <point x="297" y="0" type="curve"/>
      <point x="286" y="30"/>
      <point x="281" y="104"/>
      <point x="281" y="227" type="curve" smooth="yes"/>
      <point x="281" y="291"/>
      <point x="284" y="367"/>
      <point x="287" y="429" type="curve"/>
      <point x="346" y="427"/>
      <point x="403" y="424"/>
      <point x="438" y="421" type="curve"/>
      <point x="441" y="439"/>
      <point x="443" y="459"/>
      <point x="443" y="477" type="curve" smooth="yes"/>
      <point x="443" y="494"/>
      <point x="441" y="511"/>
      <point x="438" y="530" type="curve"/>
      <point x="414" y="521"/>
      <point x="354" y="517"/>
      <point x="254" y="517" type="curve" smooth="yes"/>
      <point x="171" y="517"/>
      <point x="66" y="521"/>
      <point x="12" y="526" type="curve"/>
      <point x="9" y="508"/>
      <point x="7" y="492"/>
      <point x="7" y="476" type="curve" smooth="yes"/>
      <point x="7" y="457"/>
      <point x="9" y="438"/>
      <point x="12" y="417" type="curve"/>
      <point x="34" y="425"/>
      <point x="84" y="429"/>
      <point x="166" y="430" type="curve"/>
      <point x="168" y="397"/>
      <point x="169" y="354"/>
      <point x="169" y="300" type="curve" smooth="yes"/>
      <point x="169" y="199"/>
      <point x="164" y="68"/>
      <point x="158" y="0" type="curve"/>
      <point x="186" y="-4"/>
      <point x="209" y="-6"/>
      <point x="229" y="-6" type="curve" smooth="yes"/>
    </contour>
    <contour>
      <point x="226" y="264" type="move" name="center"/>
    </contour>
    <contour>
      <point x="226" y="0" type="move" name="bottom"/>
    </contour>
    <contour>
      <point x="226" y="527" type="move" name="top"/>
    </contour>
  </outline>
</glyph>
<glyph name="U" format="1">
  <advance width="533"/>
  <unicode hex="0055"/>
  <outline>
    <contour>
      <point x="436" y="-5"/>
      <point x="482" y="98"/>
      <point x="482" y="205" type="curve" smooth="yes"/>
      <point x="482" y="305"/>
      <point x="486" y="453"/>
      <point x="490" y="527" type="curve"/>
      <point x="472" y="531"/>
      <point x="456" y="533"/>
      <point x="443" y="533" type="curve" smooth="yes"/>
      <point x="428" y="533"/>
      <point x="412" y="531"/>
      <point x="398" y="527" type="curve"/>
      <point x="404" y="484"/>
      <point x="406" y="323"/>
      <point x="406" y="197" type="curve" smooth="yes"/>
      <point x="406" y="136"/>
      <point x="381" y="80"/>
      <point x="286" y="80" type="curve" smooth="yes"/>
      <point x="216" y="80"/>
      <point x="175" y="119"/>
      <point x="175" y="210" type="curve" smooth="yes"/>
      <point x="175" y="320"/>
      <point x="178" y="457"/>
      <point x="181" y="527" type="curve"/>
      <point x="155" y="531"/>
      <point x="133" y="533"/>
      <point x="113" y="533" type="curve" smooth="yes"/>
      <point x="90" y="533"/>
      <point x="65" y="531"/>
      <point x="42" y="527" type="curve"/>
      <point x="53" y="484"/>
      <point x="58" y="323"/>
      <point x="58" y="200" type="curve" smooth="yes"/>
      <point x="58" y="69"/>
      <point x="135" y="-5"/>
      <point x="266" y="-5" type="curve" smooth="yes"/>
    </contour>
    <contour>
      <point x="366" y="11" type="move" name="ogonek"/>
    </contour>
    <contour>
      <point x="287" y="527" type="move" name="top"/>
    </contour>
    <contour>
      <point x="513" y="527" type="move" name="topright"/>
    </contour>
    <contour>
      <point x="267" y="0" type="move" name="bottom"/>
    </contour>
  </outline>
</glyph>
<glyph name="V" format="1">
  <advance width="516"/>
  <unicode hex="0056"/>
  <outline>
    <contour>
      <point x="348" y="27" type="line"/>
      <point x="389" y="168"/>
      <point x="467" y="409"/>
      <point x="511" y="533" type="curve"/>
      <point x="471" y="533"/>
      <point x="441" y="530"/>
      <point x="408" y="522" type="curve"/>
      <point x="420" y="489"/>
      <point x="385" y="357"/>
      <point x="295" y="85" type="curve"/>
      <point x="276" y="118"/>
      <point x="253" y="172"/>
      <point x="223" y="260" type="curve" smooth="yes"/>
      <point x="194" y="350"/>
      <point x="164" y="471"/>
      <point x="154" y="533" type="curve"/>
      <point x="95" y="533"/>
      <point x="50" y="526"/>
      <point x="5" y="512" type="curve"/>
      <point x="133" y="257"/>
      <point x="148" y="-9"/>
      <point x="256" y="-9" type="curve"/>
    </contour>
    <contour>
      <point x="258" y="527" type="move" name="top"/>
    </contour>
    <contour>
      <point x="258" y="0" type="move" name="bottom"/>
    </contour>
  </outline>
</glyph>
<glyph name="W" format="1">
  <advance width="805"/>
  <unicode hex="0057"/>
  <outline>
    <contour>
      <point x="311" y="27" type="line"/>
      <point x="334" y="105"/>
      <point x="369" y="213"/>
      <point x="402" y="314" type="curve"/>
      <point x="457" y="137"/>
      <point x="481" y="-9"/>
      <point x="561" y="-9" type="curve"/>
      <point x="633" y="27" type="line"/>
      <point x="675" y="168"/>
      <point x="754" y="409"/>
      <point x="800" y="533" type="curve"/>
      <point x="760" y="533"/>
      <point x="730" y="530"/>
      <point x="697" y="522" type="curve"/>
      <point x="708" y="489"/>
      <point x="674" y="366"/>
      <point x="590" y="111" type="curve"/>
      <point x="576" y="144"/>
      <point x="558" y="192"/>
      <point x="537" y="260" type="curve" smooth="yes"/>
      <point x="514" y="342"/>
      <point x="487" y="465"/>
      <point x="477" y="533" type="curve"/>
      <point x="425" y="533"/>
      <point x="377" y="528"/>
      <point x="328" y="512" type="curve"/>
      <point x="364" y="427" type="line"/>
      <point x="347" y="360"/>
      <point x="316" y="257"/>
      <point x="268" y="111" type="curve"/>
      <point x="253" y="144"/>
      <point x="236" y="192"/>
      <point x="214" y="260" type="curve" smooth="yes"/>
      <point x="188" y="350"/>
      <point x="163" y="471"/>
      <point x="155" y="533" type="curve"/>
      <point x="96" y="533"/>
      <point x="51" y="526"/>
      <point x="5" y="512" type="curve"/>
      <point x="124" y="257"/>
      <point x="130" y="-9"/>
      <point x="238" y="-9" type="curve"/>
    </contour>
    <contour>
      <point x="403" y="527" type="move" name="top"/>
    </contour>
    <contour>
      <point x="403" y="0" type="move" name="bottom"/>
    </contour>
  </outline>
</glyph>
<glyph name="X" format="1">
  <advance width="520"/>
  <unicode hex="0058"/>
  <outline>
    <contour>
      <point x="38" y="-6"/>
      <point x="73" y="-5"/>
      <point x="117" y="0" type="curve"/>
      <point x="123" y="26"/>
      <point x="160" y="88"/>
      <point x="244" y="195" type="curve"/>
      <point x="309" y="99"/>
      <point x="363" y="14"/>
      <point x="371" y="-6" type="curve"/>
      <point x="429" y="-6"/>
      <point x="474" y="-1"/>
      <point x="519" y="15" type="curve"/>
      <point x="494" y="35"/>
      <point x="402" y="163"/>
      <point x="318" y="287" type="curve"/>
      <point x="376" y="363"/>
      <point x="456" y="464"/>
      <point x="520" y="533" type="curve"/>
      <point x="480" y="533"/>
      <point x="445" y="532"/>
      <point x="400" y="527" type="curve"/>
      <point x="394" y="502"/>
      <point x="360" y="443"/>
      <point x="281" y="342" type="curve"/>
      <point x="220" y="434"/>
      <point x="169" y="515"/>
      <point x="161" y="533" type="curve"/>
      <point x="103" y="533"/>
      <point x="57" y="528"/>
      <point x="13" y="512" type="curve"/>
      <point x="38" y="493"/>
      <point x="125" y="372"/>
      <point x="207" y="251" type="curve"/>
      <point x="149" y="174"/>
      <point x="64" y="66"/>
      <point x="-3" y="-6" type="curve"/>
    </contour>
  </outline>
</glyph>
<glyph name="bracketleft" format="1">
  <advance width="356"/>
  <unicode hex="005B"/>
  <outline>
    <contour>
      <point x="323" y="-105"/>
      <point x="325" y="-88"/>
      <point x="325" y="-71" type="curve" smooth="yes"/>
      <point x="325" y="-53"/>
      <point x="323" y="-33"/>
      <point x="320" y="-15" type="curve"/>
      <point x="288" y="-18"/>
      <point x="237" y="-21"/>
      <point x="184" y="-22" type="curve"/>
      <point x="178" y="41"/>
      <point x="175" y="132"/>
      <point x="175" y="289" type="curve" smooth="yes"/>
      <point x="175" y="351"/>
      <point x="178" y="466"/>
      <point x="182" y="550" type="curve"/>
      <point x="233" y="549"/>
      <point x="281" y="546"/>
      <point x="312" y="543" type="curve"/>
      <point x="315" y="561"/>
      <point x="317" y="581"/>
      <point x="317" y="599" type="curve" smooth="yes"/>
      <point x="317" y="616"/>
      <point x="315" y="633"/>
      <point x="312" y="652" type="curve"/>
      <point x="291" y="645"/>
      <point x="238" y="639"/>
      <point x="151" y="639" type="curve" smooth="yes"/>
      <point x="116" y="639"/>
      <point x="82" y="640"/>
      <point x="52" y="643" type="curve"/>
      <point x="63" y="584"/>
      <point x="68" y="494"/>
      <point x="68" y="289" type="curve" smooth="yes"/>
      <point x="68" y="193"/>
      <point x="63" y="-25"/>
      <point x="57" y="-117" type="curve"/>
      <point x="96" y="-113"/>
      <point x="129" y="-111"/>
      <point x="159" y="-111" type="curve" smooth="yes"/>
      <point x="246" y="-111"/>
      <point x="299" y="-117"/>
      <point x="320" y="-124" type="curve"/>
    </contour>
  </outline>
</glyph>
<glyph name="asciicircum" format="1">
  <advance width="386"/>
  <unicode hex="005E"/>
  <outline>
    <contour>
      <point x="193" y="496" type="line"/>
      <point x="306" y="354" type="line"/>
      <point x="333" y="371"/>
      <point x="352" y="389"/>
      <point x="376" y="420" type="curve"/>
      <point x="317" y="478"/>
      <point x="270" y="528"/>
      <point x="210" y="602" type="curve"/>
      <point x="176" y="602" type="line"/>
      <point x="117" y="528"/>
      <point x="69" y="478"/>
      <point x="10" y="420" type="curve"/>
      <point x="35" y="389"/>
      <point x="54" y="371"/>
      <point x="81" y="354" type="curve"/>
    </contour>
  </outline>
</glyph>
<glyph name="b" format="1">
  <advance width="482"/>
  <unicode hex="0062"/>
  <outline>
    <contour>
      <point x="377" y="-9"/>
      <point x="449" y="70"/>
      <point x="449" y="212" type="curve" smooth="yes"/>
      <point x="449" y="338"/>
      <point x="391" y="410"/>
      <point x="289" y="410" type="curve" smooth="yes"/>
      <point x="245" y="410"/>
      <point x="201" y="394"/>
      <point x="164" y="366" type="curve"/>
      <point x="167" y="440"/>
      <point x="171" y="514"/>
      <point x="174" y="547" type="curve"/>
      <point x="119" y="547"/>
      <point x="80" y="541"/>
      <point x="37" y="527" type="curve"/>
      <point x="49" y="488"/>
      <point x="54" y="427"/>
      <point x="54" y="333" type="curve" smooth="yes"/>
      <point x="54" y="245"/>
      <point x="51" y="75"/>
      <point x="45" y="5" type="curve"/>
      <point x="63" y="2"/>
      <point x="78" y="0"/>
      <point x="93" y="0" type="curve"/>
      <point x="118" y="40" type="line"/>
      <point x="149" y="10"/>
      <point x="194" y="-9"/>
      <point x="247" y="-9" type="curve" smooth="yes"/>
    </contour>
    <contour>
      <point x="207" y="49"/>
      <point x="186" y="59"/>
      <point x="167" y="79" type="curve"/>
      <point x="162" y="103"/>
      <point x="160" y="136"/>
      <point x="160" y="192" type="curve" smooth="yes"/>
      <point x="160" y="214"/>
      <point x="161" y="253"/>
      <point x="162" y="297" type="curve"/>
      <point x="190" y="312"/>
      <point x="224" y="321"/>
      <point x="255" y="321" type="curve"/>
      <point x="304" y="299"/>
      <point x="332" y="250"/>
      <point x="332" y="173" type="curve" smooth="yes"/>
      <point x="332" y="92"/>
      <point x="297" y="49"/>
      <point x="231" y="49" type="curve" smooth="yes"/>
    </contour>
    <contour>
      <point x="243" y="407" type="move" name="top"/>
    </contour>
    <contour>
      <point x="243" y="0" type="move" name="bottom"/>
    </contour>
  </outline>
</glyph>
<glyph name="d" format="1">
  <advance width="500"/>
  <unicode hex="0064"/>
  <outline>
    <contour>
      <point x="248" y="-12"/>
      <point x="292" y="8"/>
      <point x="327" y="40" type="curve"/>
      <point x="334" y="19"/>
      <point x="346" y="2"/>
      <point x="364" y="-11" type="curve"/>
      <point x="402" y="-7"/>
      <point x="440" y="10"/>
      <point x="470" y="32" type="curve"/>
      <point x="439" y="70"/>
      <point x="431" y="95"/>
      <point x="431" y="152" type="curve" smooth="yes"/>
      <point x="431" y="335"/>
      <point x="436" y="479"/>
      <point x="443" y="547" type="curve"/>
      <point x="395" y="547"/>
      <point x="350" y="543"/>
      <point x="306" y="527" type="curve"/>
      <point x="315" y="494"/>
      <point x="321" y="447"/>
      <point x="323" y="383" type="curve"/>
      <point x="289" y="407"/>
      <point x="251" y="418"/>
      <point x="210" y="418" type="curve" smooth="yes"/>
      <point x="96" y="418"/>
      <point x="37" y="343"/>
      <point x="37" y="197" type="curve" smooth="yes"/>
      <point x="37" y="60"/>
      <point x="95" y="-12"/>
      <point x="205" y="-12" type="curve" smooth="yes"/>
    </contour>
    <contour>
      <point x="185" y="60"/>
      <point x="154" y="111"/>
      <point x="154" y="186" type="curve" smooth="yes"/>
      <point x="154" y="273"/>
      <point x="188" y="317"/>
      <point x="253" y="317" type="curve" smooth="yes"/>
      <point x="279" y="317"/>
      <point x="304" y="311"/>
      <point x="325" y="299" type="curve"/>
      <point x="325" y="226"/>
      <point x="321" y="155"/>
      <point x="321" y="89" type="curve"/>
      <point x="294" y="68"/>
      <point x="264" y="54"/>
      <point x="237" y="50" type="curve"/>
    </contour>
    <contour>
      <point x="359" y="470" type="move" name="center"/>
    </contour>
    <contour>
      <point x="254" y="407" type="move" name="top"/>
    </contour>
    <contour>
      <point x="541" y="407" type="move" name="topright"/>
    </contour>
    <contour>
      <point x="254" y="0" type="move" name="bottom"/>
    </contour>
  </outline>
</glyph>
<glyph name="g" format="1">
  <advance width="447"/>
  <unicode hex="0067"/>
  <outline>
    <contour>
      <point x="331" y="-180"/>
      <point x="425" y="-119"/>
      <point x="425" y="-38" type="curve" smooth="yes"/>
      <point x="425" y="25"/>
      <point x="382" y="60"/>
      <point x="301" y="67" type="curve" smooth="yes"/>
      <point x="113" y="77" type="line"/>
      <point x="113" y="102"/>
      <point x="149" y="119"/>
      <point x="206" y="119" type="curve" smooth="yes"/>
      <point x="318" y="119"/>
      <point x="397" y="184"/>
      <point x="397" y="277" type="curve" smooth="yes"/>
      <point x="397" y="302"/>
      <point x="391" y="324"/>
      <point x="381" y="343" type="curve"/>
      <point x="406" y="345"/>
      <point x="429" y="352"/>
      <point x="446" y="361" type="curve"/>
      <point x="446" y="384"/>
      <point x="434" y="426"/>
      <point x="420" y="454" type="curve"/>
      <point x="388" y="426"/>
      <point x="354" y="405"/>
      <point x="327" y="397" type="curve"/>
      <point x="301" y="411"/>
      <point x="270" y="418"/>
      <point x="234" y="418" type="curve" smooth="yes"/>
      <point x="125" y="418"/>
      <point x="49" y="353"/>
      <point x="49" y="260" type="curve" smooth="yes"/>
      <point x="49" y="208"/>
      <point x="73" y="166"/>
      <point x="114" y="142" type="curve"/>
      <point x="69" y="122"/>
      <point x="41" y="89"/>
      <point x="41" y="49" type="curve" smooth="yes"/>
      <point x="41" y="23"/>
      <point x="54" y="2"/>
      <point x="76" y="-10" type="curve"/>
      <point x="45" y="-46"/>
      <point x="27" y="-92"/>
      <point x="27" y="-137" type="curve"/>
      <point x="66" y="-164"/>
      <point x="129" y="-180"/>
      <point x="204" y="-180" type="curve" smooth="yes"/>
    </contour>
    <contour>
      <point x="179" y="-108"/>
      <point x="140" y="-92"/>
      <point x="115" y="-62" type="curve"/>
      <point x="118" y="-49"/>
      <point x="123" y="-35"/>
      <point x="129" y="-22" type="curve"/>
      <point x="272" y="-30" type="line" smooth="yes"/>
      <point x="318" y="-32"/>
      <point x="335" y="-39"/>
      <point x="335" y="-62" type="curve" smooth="yes"/>
      <point x="335" y="-88"/>
      <point x="293" y="-108"/>
      <point x="230" y="-108" type="curve" smooth="yes"/>
    </contour>
    <contour>
      <point x="180" y="174"/>
      <point x="152" y="203"/>
      <point x="152" y="248" type="curve" smooth="yes"/>
      <point x="152" y="295"/>
      <point x="185" y="329"/>
      <point x="230" y="329" type="curve"/>
      <point x="270" y="317"/>
      <point x="294" y="287"/>
      <point x="294" y="246" type="curve" smooth="yes"/>
      <point x="294" y="201"/>
      <point x="267" y="174"/>
      <point x="222" y="174" type="curve" smooth="yes"/>
    </contour>
    <contour>
      <point x="229" y="407" type="move" name="top"/>
    </contour>
    <contour>
      <point x="227" y="0" type="move" name="bottom"/>
    </contour>
  </outline>
</glyph>
<glyph name="h" format="1">
  <advance width="486"/>
  <unicode hex="0068"/>
  <outline>
    <contour>
      <point x="144" y="-6"/>
      <point x="167" y="-4"/>
      <point x="189" y="0" type="curve"/>
      <point x="175" y="30"/>
      <point x="168" y="105"/>
      <point x="168" y="222" type="curve" smooth="yes"/>
      <point x="168" y="243"/>
      <point x="169" y="272"/>
      <point x="170" y="288" type="curve"/>
      <point x="191" y="303"/>
      <point x="213" y="310"/>
      <point x="243" y="310" type="curve" smooth="yes"/>
      <point x="288" y="310"/>
      <point x="306" y="288"/>
      <point x="306" y="235" type="curve" smooth="yes"/>
      <point x="306" y="158"/>
      <point x="303" y="67"/>
      <point x="299" y="0" type="curve"/>
      <point x="322" y="-4"/>
      <point x="346" y="-6"/>
      <point x="365" y="-6" type="curve" smooth="yes"/>
      <point x="389" y="-6"/>
      <point x="419" y="-4"/>
      <point x="438" y="0" type="curve"/>
      <point x="425" y="29"/>
      <point x="418" y="82"/>
      <point x="418" y="150" type="curve" smooth="yes"/>
      <point x="418" y="181"/>
      <point x="422" y="251"/>
      <point x="422" y="280" type="curve" smooth="yes"/>
      <point x="422" y="367"/>
      <point x="388" y="418"/>
      <point x="305" y="418" type="curve" smooth="yes"/>
      <point x="254" y="418"/>
      <point x="206" y="394"/>
      <point x="171" y="355" type="curve"/>
      <point x="173" y="430"/>
      <point x="178" y="503"/>
      <point x="184" y="547" type="curve"/>
      <point x="130" y="547"/>
      <point x="89" y="541"/>
      <point x="47" y="527" type="curve"/>
      <point x="53" y="468"/>
      <point x="57" y="367"/>
      <point x="57" y="255" type="curve" smooth="yes"/>
      <point x="57" y="171"/>
      <point x="54" y="73"/>
      <point x="50" y="0" type="curve"/>
      <point x="77" y="-4"/>
      <point x="100" y="-6"/>
      <point x="121" y="-6" type="curve" smooth="yes"/>
    </contour>
    <contour>
      <point x="126" y="470" type="move" name="center"/>
    </contour>
    <contour>
      <point x="243" y="0" type="move" name="bottom"/>
    </contour>
    <contour>
      <point x="243" y="407" type="move" name="top"/>
    </contour>
  </outline>
</glyph>
<glyph name="k" format="1">
  <advance width="458"/>
  <unicode hex="006B"/>
  <outline>
    <contour>
      <point x="147" y="-6"/>
      <point x="169" y="-4"/>
      <point x="189" y="0" type="curve"/>
      <point x="180" y="21"/>
      <point x="173" y="66"/>
      <point x="170" y="132" type="curve"/>
      <point x="213" y="181" type="line"/>
      <point x="269" y="95"/>
      <point x="312" y="27"/>
      <point x="329" y="-6" type="curve"/>
      <point x="385" y="-6"/>
      <point x="434" y="-1"/>
      <point x="473" y="15" type="curve"/>
      <point x="425" y="51"/>
      <point x="356" y="156"/>
      <point x="291" y="266" type="curve"/>
      <point x="343" y="320"/>
      <point x="395" y="375"/>
      <point x="441" y="418" type="curve"/>
      <point x="403" y="418"/>
      <point x="369" y="416"/>
      <point x="323" y="407" type="curve"/>
      <point x="323" y="384"/>
      <point x="296" y="348"/>
      <point x="168" y="212" type="curve"/>
      <point x="168" y="227" type="line" smooth="yes"/>
      <point x="168" y="338"/>
      <point x="175" y="477"/>
      <point x="184" y="547" type="curve"/>
      <point x="130" y="547"/>
      <point x="89" y="541"/>
      <point x="47" y="527" type="curve"/>
      <point x="53" y="468"/>
      <point x="57" y="367"/>
      <point x="57" y="255" type="curve" smooth="yes"/>
      <point x="57" y="171"/>
      <point x="54" y="73"/>
      <point x="50" y="0" type="curve"/>
      <point x="79" y="-4"/>
      <point x="104" y="-6"/>
      <point x="126" y="-6" type="curve" smooth="yes"/>
    </contour>
    <contour>
      <point x="233" y="407" type="move" name="top"/>
    </contour>
    <contour>
      <point x="233" y="0" type="move" name="bottom"/>
    </contour>
  </outline>
</glyph>
<glyph name="l" format="1">
  <advance width="241"/>
  <unicode hex="006C"/>
  <outline>
    <contour>
      <point x="150" y="-9"/>
      <point x="184" y="0"/>
      <point x="211" y="27" type="curve"/>
      <point x="180" y="61"/>
      <point x="172" y="84"/>
      <point x="172" y="192" type="curve" smooth="yes"/>
      <point x="172" y="356"/>
      <point x="177" y="485"/>
      <point x="184" y="547" type="curve"/>
      <point x="136" y="547"/>
      <point x="95" y="543"/>
      <point x="47" y="527" type="curve"/>
      <point x="60" y="480"/>
      <point x="66" y="406"/>
      <point x="66" y="297" type="curve" smooth="yes"/>
      <point x="66" y="208"/>
      <point x="62" y="144"/>
      <point x="62" y="73" type="curve" smooth="yes"/>
      <point x="62" y="10"/>
      <point x="81" y="-9"/>
      <point x="129" y="-9" type="curve" smooth="yes"/>
    </contour>
    <contour>
      <point x="124" y="280" type="move" name="center"/>
    </contour>
    <contour>
      <point x="124" y="527" type="move" name="top"/>
    </contour>
    <contour>
      <point x="276" y="407" type="move" name="topright"/>
    </contour>
    <contour>
      <point x="124" y="0" type="move" name="bottom"/>
    </contour>
  </outline>
</glyph>
<glyph name="m" format="1">
  <advance width="756"/>
  <unicode hex="006D"/>
  <outline>
    <contour>
      <point x="176" y="-6"/>
      <point x="199" y="-4"/>
      <point x="218" y="0" type="curve"/>
      <point x="205" y="29"/>
      <point x="198" y="82"/>
      <point x="198" y="150" type="curve" smooth="yes"/>
      <point x="198" y="206"/>
      <point x="200" y="253"/>
      <point x="202" y="291" type="curve"/>
      <point x="220" y="304"/>
      <point x="241" y="310"/>
      <point x="268" y="310" type="curve" smooth="yes"/>
      <point x="313" y="310"/>
      <point x="331" y="288"/>
      <point x="331" y="235" type="curve" smooth="yes"/>
      <point x="331" y="152"/>
      <point x="328" y="62"/>
      <point x="324" y="0" type="curve"/>
      <point x="347" y="-4"/>
      <point x="371" y="-6"/>
      <point x="390" y="-6" type="curve" smooth="yes"/>
      <point x="414" y="-6"/>
      <point x="444" y="-4"/>
      <point x="463" y="0" type="curve"/>
      <point x="450" y="29"/>
      <point x="443" y="82"/>
      <point x="443" y="150" type="curve" smooth="yes"/>
      <point x="443" y="182"/>
      <point x="446" y="250"/>
      <point x="447" y="291" type="curve"/>
      <point x="465" y="304"/>
      <point x="486" y="310"/>
      <point x="513" y="310" type="curve" smooth="yes"/>
      <point x="558" y="310"/>
      <point x="576" y="288"/>
      <point x="576" y="235" type="curve" smooth="yes"/>
      <point x="576" y="152"/>
      <point x="573" y="62"/>
      <point x="569" y="0" type="curve"/>
      <point x="592" y="-4"/>
      <point x="616" y="-6"/>
      <point x="635" y="-6" type="curve" smooth="yes"/>
      <point x="659" y="-6"/>
      <point x="689" y="-4"/>
      <point x="708" y="0" type="curve"/>
      <point x="695" y="29"/>
      <point x="688" y="82"/>
      <point x="688" y="150" type="curve" smooth="yes"/>
      <point x="688" y="181"/>
      <point x="692" y="251"/>
      <point x="692" y="280" type="curve" smooth="yes"/>
      <point x="692" y="362"/>
      <point x="661" y="418"/>
      <point x="570" y="418" type="curve" smooth="yes"/>
      <point x="518" y="418"/>
      <point x="471" y="391"/>
      <point x="438" y="347" type="curve"/>
      <point x="423" y="391"/>
      <point x="388" y="418"/>
      <point x="325" y="418" type="curve" smooth="yes"/>
      <point x="277" y="418"/>
      <point x="233" y="395"/>
      <point x="200" y="356" type="curve"/>
      <point x="194" y="393"/>
      <point x="175" y="414"/>
      <point x="134" y="414" type="curve" smooth="yes"/>
      <point x="113" y="414"/>
      <point x="76" y="405"/>
      <point x="47" y="378" type="curve"/>
      <point x="78" y="344"/>
      <point x="86" y="321"/>
      <point x="86" y="213" type="curve" smooth="yes"/>
      <point x="86" y="139"/>
      <point x="83" y="57"/>
      <point x="79" y="0" type="curve"/>
      <point x="102" y="-4"/>
      <point x="133" y="-6"/>
      <point x="155" y="-6" type="curve" smooth="yes"/>
    </contour>
    <contour>
      <point x="379" y="407" type="move" name="top"/>
    </contour>
    <contour>
      <point x="379" y="0" type="move" name="bottom"/>
    </contour>
  </outline>
</glyph>
<glyph name="o" format="1">
  <advance width="498"/>
  <unicode hex="006F"/>
  <outline>
    <contour>
      <point x="367" y="-11"/>
      <point x="465" y="82"/>
      <point x="465" y="215" type="curve" smooth="yes"/>
      <point x="465" y="337"/>
      <point x="384" y="418"/>
      <point x="263" y="418" type="curve" smooth="yes"/>
      <point x="127" y="418"/>
      <point x="32" y="325"/>
      <point x="32" y="192" type="curve" smooth="yes"/>
      <point x="32" y="70"/>
      <point x="111" y="-11"/>
      <point x="228" y="-11" type="curve" smooth="yes"/>
    </contour>
    <contour>
      <point x="187" y="44"/>
      <point x="144" y="99"/>
      <point x="144" y="187" type="curve" smooth="yes"/>
      <point x="144" y="268"/>
      <point x="188" y="319"/>
      <point x="258" y="319" type="curve"/>
      <point x="317" y="301"/>
      <point x="353" y="245"/>
      <point x="353" y="174" type="curve" smooth="yes"/>
      <point x="353" y="92"/>
      <point x="314" y="44"/>
      <point x="246" y="44" type="curve" smooth="yes"/>
    </contour>
    <contour>
      <point x="250" y="204" type="move" name="center"/>
    </contour>
    <contour>
      <point x="449" y="10" type="move" name="ogonek"/>
    </contour>
    <contour>
      <point x="250" y="407" type="move" name="top"/>
    </contour>
    <contour>
      <point x="478" y="407" type="move" name="topright"/>
    </contour>
    <contour>
      <point x="250" y="0" type="move" name="bottom"/>
    </contour>
  </outline>
</glyph>
<glyph name="r" format="1">
  <advance width="345"/>
  <unicode hex="0072"/>
  <outline>
    <contour>
      <point x="173" y="-6"/>
      <point x="199" y="-4"/>
      <point x="218" y="0" type="curve"/>
      <point x="205" y="29"/>
      <point x="198" y="82"/>
      <point x="198" y="150" type="curve" smooth="yes"/>
      <point x="198" y="197"/>
      <point x="200" y="237"/>
      <point x="201" y="271" type="curve"/>
      <point x="229" y="289"/>
      <point x="280" y="304"/>
      <point x="337" y="295" type="curve"/>
      <point x="337" y="338"/>
      <point x="329" y="395"/>
      <point x="319" y="423" type="curve"/>
      <point x="270" y="409"/>
      <point x="234" y="382"/>
      <point x="202" y="341" type="curve"/>
      <point x="199" y="387"/>
      <point x="178" y="414"/>
      <point x="129" y="414" type="curve" smooth="yes"/>
      <point x="109" y="414"/>
      <point x="75" y="405"/>
      <point x="47" y="378" type="curve"/>
      <point x="78" y="344"/>
      <point x="86" y="321"/>
      <point x="86" y="213" type="curve" smooth="yes"/>
      <point x="86" y="139"/>
      <point x="83" y="57"/>
      <point x="79" y="0" type="curve"/>
      <point x="106" y="-4"/>
      <point x="129" y="-6"/>
      <point x="150" y="-6" type="curve" smooth="yes"/>
    </contour>
    <contour>
      <point x="196" y="407" type="move" name="top"/>
    </contour>
    <contour>
      <point x="146" y="0" type="move" name="bottom"/>
    </contour>
  </outline>
</glyph>
<glyph name="s" format="1">
  <advance width="406"/>
  <unicode hex="0073"/>
  <outline>
    <contour>
      <point x="311" y="-11"/>
      <point x="378" y="35"/>
      <point x="378" y="114" type="curve" smooth="yes"/>
      <point x="378" y="252"/>
      <point x="159" y="249"/>
      <point x="159" y="316" type="curve" smooth="yes"/>
      <point x="159" y="331"/>
      <point x="175" y="345"/>
      <point x="197" y="349" type="curve"/>
      <point x="230" y="349"/>
      <point x="282" y="324"/>
      <point x="332" y="282" type="curve"/>
      <point x="348" y="308"/>
      <point x="364" y="366"/>
      <point x="364" y="394" type="curve"/>
      <point x="323" y="409"/>
      <point x="265" y="418"/>
      <point x="207" y="418" type="curve" smooth="yes"/>
      <point x="106" y="418"/>
      <point x="38" y="372"/>
      <point x="38" y="302" type="curve" smooth="yes"/>
      <point x="38" y="152"/>
      <point x="258" y="162"/>
      <point x="258" y="98" type="curve" smooth="yes"/>
      <point x="258" y="72"/>
      <point x="231" y="58"/>
      <point x="179" y="58" type="curve" smooth="yes"/>
      <point x="124" y="58"/>
      <point x="76" y="79"/>
      <point x="51" y="111" type="curve"/>
      <point x="37" y="80"/>
      <point x="32" y="56"/>
      <point x="32" y="25" type="curve"/>
      <point x="73" y="1"/>
      <point x="129" y="-11"/>
      <point x="195" y="-11" type="curve" smooth="yes"/>
    </contour>
    <contour>
      <point x="204" y="407" type="move" name="top"/>
    </contour>
    <contour>
      <point x="197" y="0" type="move" name="bottom"/>
    </contour>
  </outline>
</glyph>
<glyph name="t" format="1">
  <advance width="322"/>
  <unicode hex="0074"/>
  <outline>
    <contour>
      <point x="219" y="-9"/>
      <point x="271" y="16"/>
      <point x="298" y="53" type="curve"/>
      <point x="292" y="89" type="line"/>
      <point x="272" y="85"/>
      <point x="245" y="81"/>
      <point x="215" y="80" type="curve"/>
      <point x="207" y="125"/>
      <point x="203" y="189"/>
      <point x="203" y="252" type="curve" smooth="yes"/>
      <point x="203" y="281"/>
      <point x="204" y="307"/>
      <point x="206" y="333" type="curve"/>
      <point x="243" y="332"/>
      <point x="270" y="328"/>
      <point x="289" y="321" type="curve"/>
      <point x="301" y="347"/>
      <point x="306" y="370"/>
      <point x="306" y="404" type="curve"/>
      <point x="287" y="400"/>
      <point x="256" y="397"/>
      <point x="208" y="396" type="curve"/>
      <point x="207" y="421"/>
      <point x="205" y="447"/>
      <point x="203" y="466" type="curve"/>
      <point x="159" y="469" type="line"/>
      <point x="115" y="426"/>
      <point x="72" y="393"/>
      <point x="22" y="368" type="curve"/>
      <point x="22" y="338"/>
      <point x="37" y="330"/>
      <point x="93" y="330" type="curve"/>
      <point x="94" y="322"/>
      <point x="95" y="308"/>
      <point x="95" y="297" type="curve" smooth="yes"/>
      <point x="95" y="212"/>
      <point x="91" y="151"/>
      <point x="91" y="83" type="curve" smooth="yes"/>
      <point x="91" y="15"/>
      <point x="112" y="-9"/>
      <point x="170" y="-9" type="curve" smooth="yes"/>
    </contour>
    <contour>
      <point x="154" y="204" type="move" name="center"/>
    </contour>
    <contour>
      <point x="171" y="407" type="move" name="top"/>
    </contour>
    <contour>
      <point x="324" y="407" type="move" name="topright"/>
    </contour>
    <contour>
      <point x="161" y="0" type="move" name="bottom"/>
    </contour>
  </outline>
</glyph>
<glyph name="x" format="1">
  <advance width="454"/>
  <unicode hex="0078"/>
  <outline>
    <contour>
      <point x="40" y="-6"/>
      <point x="75" y="-5"/>
      <point x="119" y="0" type="curve"/>
      <point x="123" y="18"/>
      <point x="136" y="43"/>
      <point x="207" y="140" type="curve"/>
      <point x="244" y="86"/>
      <point x="278" y="33"/>
      <point x="301" y="-6" type="curve"/>
      <point x="359" y="-6"/>
      <point x="408" y="-1"/>
      <point x="450" y="15" type="curve"/>
      <point x="420" y="43"/>
      <point x="350" y="132"/>
      <point x="284" y="226" type="curve"/>
      <point x="330" y="286"/>
      <point x="390" y="361"/>
      <point x="437" y="413" type="curve"/>
      <point x="401" y="413"/>
      <point x="366" y="411"/>
      <point x="322" y="402" type="curve"/>
      <point x="318" y="386"/>
      <point x="307" y="363"/>
      <point x="246" y="280" type="curve"/>
      <point x="212" y="329"/>
      <point x="181" y="376"/>
      <point x="160" y="413" type="curve"/>
      <point x="101" y="413"/>
      <point x="53" y="408"/>
      <point x="11" y="392" type="curve"/>
      <point x="41" y="365"/>
      <point x="106" y="283"/>
      <point x="168" y="195" type="curve"/>
      <point x="121" y="133"/>
      <point x="56" y="51"/>
      <point x="4" y="-6" type="curve"/>
    </contour>
    <contour>
      <point x="229" y="407" type="move" name="top"/>
    </contour>
    <contour>
      <point x="229" y="0" type="move" name="bottom"/>
    </contour>
  </outline>
</glyph>
<glyph name="braceleft" format="1">
  <advance width="363"/>
  <unicode hex="007B"/>
  <outline>
    <contour>
      <point x="336" y="-104"/>
      <point x="338" y="-90"/>
      <point x="338" y="-77" type="curve" smooth="yes"/>
      <point x="338" y="-57"/>
      <point x="336" y="-38"/>
      <point x="333" y="-18" type="curve"/>
      <point x="291" y="-24"/>
      <point x="256" y="-27"/>
      <point x="227" y="-27" type="curve"/>
      <point x="212" y="-13"/>
      <point x="199" y="23"/>
      <point x="199" y="79" type="curve" smooth="yes"/>
      <point x="199" y="104"/>
      <point x="200" y="130"/>
      <point x="200" y="154" type="curve" smooth="yes"/>
      <point x="200" y="208"/>
      <point x="193" y="254"/>
      <point x="147" y="262" type="curve"/>
      <point x="147" y="266" type="line"/>
      <point x="193" y="274"/>
      <point x="200" y="320"/>
      <point x="200" y="374" type="curve" smooth="yes"/>
      <point x="200" y="398"/>
      <point x="199" y="424"/>
      <point x="199" y="449" type="curve" smooth="yes"/>
      <point x="199" y="505"/>
      <point x="212" y="541"/>
      <point x="227" y="555" type="curve"/>
      <point x="256" y="555"/>
      <point x="291" y="552"/>
      <point x="333" y="546" type="curve"/>
      <point x="336" y="566"/>
      <point x="338" y="585"/>
      <point x="338" y="605" type="curve" smooth="yes"/>
      <point x="338" y="618"/>
      <point x="336" y="632"/>
      <point x="333" y="647" type="curve"/>
      <point x="188" y="647"/>
      <point x="75" y="613"/>
      <point x="75" y="481" type="curve" smooth="yes"/>
      <point x="75" y="434"/>
      <point x="99" y="368"/>
      <point x="99" y="330" type="curve" smooth="yes"/>
      <point x="99" y="304"/>
      <point x="81" y="292"/>
      <point x="37" y="291" type="curve"/>
      <point x="37" y="237" type="line"/>
      <point x="81" y="236"/>
      <point x="99" y="224"/>
      <point x="99" y="199" type="curve" smooth="yes"/>
      <point x="99" y="156"/>
      <point x="75" y="95"/>
      <point x="75" y="47" type="curve" smooth="yes"/>
      <point x="75" y="-85"/>
      <point x="188" y="-119"/>
      <point x="333" y="-119" type="curve"/>
    </contour>
  </outline>
</glyph>
<glyph name="cent" format="1">
  <advance width="405"/>
  <unicode hex="00A2"/>
  <outline>
    <contour>
      <point x="255" y="449" type="line"/>
      <point x="256" y="499"/>
      <point x="257" y="544"/>
      <point x="259" y="577" type="curve"/>
      <point x="245" y="581"/>
      <point x="231" y="584"/>
      <point x="218" y="584" type="curve" smooth="yes"/>
      <point x="205" y="584"/>
      <point x="190" y="581"/>
      <point x="178" y="577" type="curve"/>
      <point x="183" y="554"/>
      <point x="185" y="511"/>
      <point x="187" y="449" type="curve"/>
    </contour>
    <contour>
      <point x="236" y="-56"/>
      <point x="250" y="-54"/>
      <point x="263" y="-50" type="curve"/>
      <point x="258" y="-28"/>
      <point x="256" y="14"/>
      <point x="254" y="73" type="curve"/>
      <point x="185" y="73" type="line"/>
      <point x="184" y="25"/>
      <point x="183" y="-19"/>
      <point x="181" y="-50" type="curve"/>
      <point x="197" y="-54"/>
      <point x="211" y="-56"/>
      <point x="223" y="-56" type="curve" smooth="yes"/>
    </contour>
    <component base="c" yOffset="61"/>
  </outline>
</glyph>
<glyph name="sterling" format="1">
  <advance width="512"/>
  <unicode hex="00A3"/>
  <outline>
    <contour>
      <point x="453" y="16"/>
      <point x="462" y="76"/>
      <point x="462" y="123" type="curve"/>
      <point x="423" y="107"/>
      <point x="356" y="97"/>
      <point x="290" y="97" type="curve" smooth="yes"/>
      <point x="250" y="97"/>
      <point x="204" y="100"/>
      <point x="174" y="103" type="curve"/>
      <point x="201" y="143"/>
      <point x="209" y="187"/>
      <point x="209" y="231" type="curve" smooth="yes"/>
      <point x="209" y="291"/>
      <point x="194" y="349"/>
      <point x="194" y="391" type="curve" smooth="yes"/>
      <point x="194" y="432"/>
      <point x="216" y="458"/>
      <point x="259" y="465" type="curve"/>
      <point x="304" y="456"/>
      <point x="355" y="431"/>
      <point x="411" y="388" type="curve"/>
      <point x="432" y="416"/>
      <point x="450" y="472"/>
      <point x="450" y="509" type="curve"/>
      <point x="410" y="524"/>
      <point x="336" y="534"/>
      <point x="265" y="534" type="curve" smooth="yes"/>
      <point x="143" y="534"/>
      <point x="70" y="483"/>
      <point x="70" y="400" type="curve" smooth="yes"/>
      <point x="70" y="310"/>
      <point x="121" y="240"/>
      <point x="121" y="172" type="curve" smooth="yes"/>
      <point x="121" y="130"/>
      <point x="102" y="89"/>
      <point x="40" y="43" type="curve"/>
      <point x="40" y="0" type="line"/>
      <point x="79" y="2"/>
      <point x="139" y="3"/>
      <point x="203" y="3" type="curve" smooth="yes"/>
      <point x="303" y="3"/>
      <point x="414" y="0"/>
      <point x="442" y="-5" type="curve"/>
    </contour>
    <component base="uni0335"/>
  </outline>
</glyph>
<glyph name="currency" format="1">
  <advance width="576"/>
  <unicode hex="00A4"/>
  <outline>
    <contour>
      <point x="481" y="404"/>
      <point x="514" y="435"/>
      <point x="538" y="456" type="curve"/>
      <point x="524" y="484"/>
      <point x="510" y="497"/>
      <point x="481" y="514" type="curve"/>
      <point x="468" y="495"/>
      <point x="440" y="463"/>
      <point x="397" y="417" type="curve"/>
      <point x="445" y="369" type="line"/>
    </contour>
    <contour>
      <point x="107" y="32"/>
      <point x="135" y="63"/>
      <point x="176" y="107" type="curve"/>
      <point x="127" y="155" type="line"/>
      <point x="92" y="121"/>
      <point x="61" y="92"/>
      <point x="37" y="71" type="curve"/>
      <point x="51" y="48"/>
      <point x="70" y="26"/>
      <point x="96" y="13" type="curve"/>
    </contour>
    <contour>
      <point x="506" y="27"/>
      <point x="523" y="43"/>
      <point x="538" y="71" type="curve"/>
      <point x="519" y="83"/>
      <point x="488" y="111"/>
      <point x="444" y="153" type="curve"/>
      <point x="395" y="105" type="line"/>
      <point x="430" y="69"/>
      <point x="459" y="37"/>
      <point x="480" y="13" type="curve"/>
    </contour>
    <contour>
      <point x="181" y="422" type="line"/>
      <point x="146" y="458"/>
      <point x="116" y="490"/>
      <point x="94" y="514" type="curve"/>
      <point x="70" y="500"/>
      <point x="52" y="483"/>
      <point x="37" y="456" type="curve"/>
      <point x="56" y="444"/>
      <point x="88" y="416"/>
      <point x="133" y="374" type="curve"/>
    </contour>
    <component base="o" xOffset="40" yOffset="61"/>
  </outline>
</glyph>
<glyph name="brokenbar" format="1">
  <advance width="349"/>
  <unicode hex="00A6"/>
  <outline>
    <contour>
      <point x="139" y="309" type="line"/>
      <point x="170" y="339"/>
      <point x="204" y="366"/>
      <point x="240" y="392" type="curve"/>
      <point x="240" y="452"/>
      <point x="245" y="582"/>
      <point x="251" y="630" type="curve"/>
      <point x="222" y="636"/>
      <point x="198" y="639"/>
      <point x="176" y="639" type="curve" smooth="yes"/>
      <point x="147" y="639"/>
      <point x="117" y="636"/>
      <point x="92" y="630" type="curve"/>
      <point x="103" y="576"/>
      <point x="108" y="495"/>
      <point x="108" y="309" type="curve"/>
    </contour>
    <contour>
      <point x="197" y="-111"/>
      <point x="226" y="-108"/>
      <point x="251" y="-102" type="curve"/>
      <point x="241" y="-48"/>
      <point x="235" y="34"/>
      <point x="235" y="220" type="curve"/>
      <point x="204" y="220" type="line"/>
      <point x="174" y="190"/>
      <point x="140" y="163"/>
      <point x="104" y="136" type="curve"/>
      <point x="104" y="77"/>
      <point x="98" y="-54"/>
      <point x="92" y="-102" type="curve"/>
      <point x="121" y="-108"/>
      <point x="146" y="-111"/>
      <point x="168" y="-111" type="curve" smooth="yes"/>
    </contour>
  </outline>
</glyph>
<glyph name="section" format="1">
  <advance width="466"/>
  <unicode hex="00A7"/>
  <outline>
    <contour>
      <point x="346" y="-188"/>
      <point x="413" y="-140"/>
      <point x="413" y="-51" type="curve" smooth="yes"/>
      <point x="413" y="-4"/>
      <point x="391" y="33"/>
      <point x="346" y="64" type="curve"/>
      <point x="391" y="87"/>
      <point x="413" y="126"/>
      <point x="413" y="177" type="curve" smooth="yes"/>
      <point x="413" y="334"/>
      <point x="169" y="329"/>
      <point x="169" y="417" type="curve" smooth="yes"/>
      <point x="169" y="440"/>
      <point x="187" y="462"/>
      <point x="210" y="466" type="curve"/>
      <point x="246" y="466"/>
      <point x="305" y="439"/>
      <point x="360" y="396" type="curve"/>
      <point x="379" y="421"/>
      <point x="396" y="473"/>
      <point x="396" y="508" type="curve"/>
      <point x="357" y="522"/>
      <point x="306" y="530"/>
      <point x="250" y="530" type="curve" smooth="yes"/>
      <point x="134" y="530"/>
      <point x="56" y="477"/>
      <point x="56" y="398" type="curve" smooth="yes"/>
      <point x="56" y="349"/>
      <point x="80" y="311"/>
      <point x="131" y="277" type="curve"/>
      <point x="83" y="255"/>
      <point x="56" y="216"/>
      <point x="56" y="170" type="curve" smooth="yes"/>
      <point x="56" y="16"/>
      <point x="300" y="13"/>
      <point x="300" y="-69" type="curve" smooth="yes"/>
      <point x="300" y="-104"/>
      <point x="269" y="-125"/>
      <point x="214" y="-125" type="curve" smooth="yes"/>
      <point x="153" y="-125"/>
      <point x="98" y="-108"/>
      <point x="67" y="-79" type="curve"/>
      <point x="56" y="-103"/>
      <point x="52" y="-124"/>
      <point x="52" y="-155" type="curve"/>
      <point x="98" y="-177"/>
      <point x="156" y="-188"/>
      <point x="220" y="-188" type="curve" smooth="yes"/>
    </contour>
    <contour>
      <point x="192" y="141"/>
      <point x="169" y="161"/>
      <point x="169" y="190" type="curve" smooth="yes"/>
      <point x="169" y="212"/>
      <point x="185" y="232"/>
      <point x="207" y="237" type="curve"/>
      <point x="279" y="204"/>
      <point x="300" y="186"/>
      <point x="300" y="159" type="curve" smooth="yes"/>
      <point x="300" y="135"/>
      <point x="286" y="118"/>
      <point x="260" y="109" type="curve"/>
    </contour>
  </outline>
</glyph>
<glyph name="copyright" format="1">
  <advance width="724"/>
  <unicode hex="00A9"/>
  <outline>
    <contour>
      <point x="531" y="-20"/>
      <point x="669" y="118"/>
      <point x="669" y="287" type="curve" smooth="yes"/>
      <point x="669" y="456"/>
      <point x="531" y="594"/>
      <point x="362" y="594" type="curve" smooth="yes"/>
      <point x="193" y="594"/>
      <point x="55" y="456"/>
      <point x="55" y="287" type="curve" smooth="yes"/>
      <point x="55" y="118"/>
      <point x="193" y="-20"/>
      <point x="362" y="-20" type="curve" smooth="yes"/>
    </contour>
    <contour>
      <point x="409" y="114"/>
      <point x="466" y="137"/>
      <point x="496" y="172" type="curve"/>
      <point x="490" y="196" type="line"/>
      <point x="461" y="180"/>
      <point x="421" y="170"/>
      <point x="377" y="170" type="curve" smooth="yes"/>
      <point x="312" y="170"/>
      <point x="265" y="208"/>
      <point x="265" y="296" type="curve" smooth="yes"/>
      <point x="265" y="359"/>
      <point x="303" y="419"/>
      <point x="350" y="431" type="curve"/>
      <point x="375" y="431"/>
      <point x="426" y="409"/>
      <point x="464" y="384" type="curve"/>
      <point x="477" y="398"/>
      <point x="486" y="431"/>
      <point x="486" y="452" type="curve"/>
      <point x="458" y="463"/>
      <point x="423" y="468"/>
      <point x="383" y="468" type="curve" smooth="yes"/>
      <point x="271" y="468"/>
      <point x="192" y="390"/>
      <point x="192" y="278" type="curve" smooth="yes"/>
      <point x="192" y="173"/>
      <point x="252" y="114"/>
      <point x="355" y="114" type="curve" smooth="yes"/>
    </contour>
    <contour>
      <point x="221" y="31"/>
      <point x="106" y="147"/>
      <point x="106" y="287" type="curve" smooth="yes"/>
      <point x="106" y="428"/>
      <point x="221" y="543"/>
      <point x="362" y="543" type="curve" smooth="yes"/>
      <point x="502" y="543"/>
      <point x="618" y="428"/>
      <point x="618" y="287" type="curve" smooth="yes"/>
      <point x="618" y="147"/>
      <point x="502" y="31"/>
      <point x="362" y="31" type="curve" smooth="yes"/>
    </contour>
  </outline>
</glyph>
<glyph name="logicalnot" format="1">
  <advance width="533"/>
  <unicode hex="00AC"/>
  <outline>
    <contour>
      <point x="441" y="62"/>
      <point x="456" y="64"/>
      <point x="470" y="67" type="curve"/>
      <point x="467" y="140"/>
      <point x="466" y="207"/>
      <point x="466" y="310" type="curve"/>
      <point x="399" y="307"/>
      <point x="332" y="306"/>
      <point x="267" y="306" type="curve" smooth="yes"/>
      <point x="200" y="306"/>
      <point x="134" y="307"/>
      <point x="67" y="310" type="curve"/>
      <point x="64" y="295"/>
      <point x="62" y="279"/>
      <point x="62" y="265" type="curve" smooth="yes"/>
      <point x="62" y="251"/>
      <point x="64" y="235"/>
      <point x="67" y="221" type="curve"/>
      <point x="134" y="224"/>
      <point x="200" y="226"/>
      <point x="267" y="226" type="curve" smooth="yes"/>
      <point x="307" y="226"/>
      <point x="349" y="225"/>
      <point x="386" y="224" type="curve"/>
      <point x="386" y="172"/>
      <point x="383" y="113"/>
      <point x="381" y="67" type="curve"/>
      <point x="396" y="64"/>
      <point x="413" y="62"/>
      <point x="426" y="62" type="curve" smooth="yes"/>
    </contour>
  </outline>
</glyph>
<glyph name="registered" format="1">
  <advance width="547"/>
  <unicode hex="00AE"/>
  <outline>
    <contour>
      <point x="403" y="218"/>
      <point x="509" y="324"/>
      <point x="509" y="454" type="curve" smooth="yes"/>
      <point x="509" y="584"/>
      <point x="403" y="690"/>
      <point x="273" y="690" type="curve" smooth="yes"/>
      <point x="143" y="690"/>
      <point x="37" y="584"/>
      <point x="37" y="454" type="curve" smooth="yes"/>
      <point x="37" y="324"/>
      <point x="143" y="218"/>
      <point x="273" y="218" type="curve" smooth="yes"/>
    </contour>
    <contour>
      <point x="165" y="257"/>
      <point x="76" y="346"/>
      <point x="76" y="454" type="curve" smooth="yes"/>
      <point x="76" y="562"/>
      <point x="165" y="651"/>
      <point x="273" y="651" type="curve" smooth="yes"/>
      <point x="381" y="651"/>
      <point x="470" y="562"/>
      <point x="470" y="454" type="curve" smooth="yes"/>
      <point x="470" y="346"/>
      <point x="381" y="257"/>
      <point x="273" y="257" type="curve" smooth="yes"/>
    </contour>
    <contour>
      <point x="216" y="323"/>
      <point x="228" y="324"/>
      <point x="239" y="326" type="curve"/>
      <point x="234" y="339"/>
      <point x="231" y="371"/>
      <point x="230" y="419" type="curve"/>
      <point x="243" y="417"/>
      <point x="254" y="416"/>
      <point x="275" y="416" type="curve"/>
      <point x="299" y="374"/>
      <point x="317" y="339"/>
      <point x="324" y="323" type="curve"/>
      <point x="353" y="323"/>
      <point x="376" y="325"/>
      <point x="400" y="333" type="curve"/>
      <point x="380" y="348"/>
      <point x="357" y="386"/>
      <point x="334" y="429" type="curve"/>
      <point x="367" y="445"/>
      <point x="387" y="471"/>
      <point x="387" y="504" type="curve" smooth="yes"/>
      <point x="387" y="560"/>
      <point x="346" y="592"/>
      <point x="271" y="592" type="curve" smooth="yes"/>
      <point x="230" y="592"/>
      <point x="187" y="586"/>
      <point x="164" y="578" type="curve"/>
      <point x="170" y="565"/>
      <point x="173" y="529"/>
      <point x="173" y="473" type="curve" smooth="yes"/>
      <point x="173" y="425"/>
      <point x="170" y="358"/>
      <point x="167" y="326" type="curve"/>
      <point x="180" y="324"/>
      <point x="193" y="323"/>
      <point x="205" y="323" type="curve" smooth="yes"/>
    </contour>
    <contour>
      <point x="272" y="448"/>
      <point x="250" y="452"/>
      <point x="229" y="458" type="curve"/>
      <point x="233" y="550" type="line"/>
      <point x="241" y="552"/>
      <point x="250" y="553"/>
      <point x="259" y="553" type="curve" smooth="yes"/>
      <point x="300" y="553"/>
      <point x="324" y="537"/>
      <point x="324" y="500" type="curve" smooth="yes"/>
      <point x="324" y="475"/>
      <point x="306" y="458"/>
      <point x="285" y="448" type="curve"/>
    </contour>
  </outline>
</glyph>
<glyph name="multiply" format="1">
  <advance width="533"/>
  <unicode hex="00D7"/>
  <outline>
    <contour>
      <point x="184" y="125"/>
      <point x="225" y="168"/>
      <point x="267" y="212" type="curve"/>
      <point x="309" y="168"/>
      <point x="350" y="125"/>
      <point x="391" y="79" type="curve"/>
      <point x="417" y="97"/>
      <point x="434" y="114"/>
      <point x="454" y="142" type="curve"/>
      <point x="408" y="183"/>
      <point x="365" y="224"/>
      <point x="321" y="266" type="curve"/>
      <point x="365" y="308"/>
      <point x="408" y="349"/>
      <point x="454" y="390" type="curve"/>
      <point x="433" y="418"/>
      <point x="420" y="431"/>
      <point x="391" y="453" type="curve"/>
      <point x="350" y="407"/>
      <point x="309" y="364"/>
      <point x="267" y="320" type="curve"/>
      <point x="225" y="364"/>
      <point x="184" y="407"/>
      <point x="143" y="453" type="curve"/>
      <point x="115" y="432"/>
      <point x="102" y="419"/>
      <point x="80" y="390" type="curve"/>
      <point x="126" y="349"/>
      <point x="169" y="308"/>
      <point x="213" y="266" type="curve"/>
      <point x="169" y="224"/>
      <point x="126" y="183"/>
      <point x="80" y="142" type="curve"/>
      <point x="98" y="116"/>
      <point x="115" y="99"/>
      <point x="143" y="79" type="curve"/>
    </contour>
  </outline>
</glyph>
<glyph name="Thorn" format="1">
  <advance width="494"/>
  <unicode hex="00DE"/>
  <outline>
    <contour>
      <point x="152" y="-6"/>
      <point x="175" y="-4"/>
      <point x="196" y="0" type="curve"/>
      <point x="190" y="16"/>
      <point x="186" y="44"/>
      <point x="184" y="85" type="curve"/>
      <point x="202" y="82"/>
      <point x="222" y="80"/>
      <point x="243" y="80" type="curve" smooth="yes"/>
      <point x="377" y="80"/>
      <point x="470" y="160"/>
      <point x="470" y="276" type="curve" smooth="yes"/>
      <point x="470" y="389"/>
      <point x="393" y="452"/>
      <point x="253" y="452" type="curve" smooth="yes"/>
      <point x="230" y="452"/>
      <point x="207" y="451"/>
      <point x="186" y="448" type="curve"/>
      <point x="187" y="479"/>
      <point x="189" y="506"/>
      <point x="191" y="527" type="curve"/>
      <point x="165" y="531"/>
      <point x="143" y="533"/>
      <point x="123" y="533" type="curve" smooth="yes"/>
      <point x="99" y="533"/>
      <point x="74" y="531"/>
      <point x="52" y="527" type="curve"/>
      <point x="63" y="497"/>
      <point x="68" y="417"/>
      <point x="68" y="295" type="curve" smooth="yes"/>
      <point x="68" y="197"/>
      <point x="63" y="70"/>
      <point x="57" y="0" type="curve"/>
      <point x="85" y="-4"/>
      <point x="109" y="-6"/>
      <point x="131" y="-6" type="curve" smooth="yes"/>
    </contour>
    <contour>
      <point x="256" y="144"/>
      <point x="219" y="152"/>
      <point x="181" y="164" type="curve"/>
      <point x="178" y="214"/>
      <point x="179" y="310"/>
      <point x="183" y="367" type="curve"/>
      <point x="199" y="372"/>
      <point x="215" y="374"/>
      <point x="232" y="374" type="curve" smooth="yes"/>
      <point x="306" y="374"/>
      <point x="348" y="342"/>
      <point x="348" y="268" type="curve" smooth="yes"/>
      <point x="348" y="211"/>
      <point x="318" y="164"/>
      <point x="280" y="144" type="curve"/>
    </contour>
    <contour>
      <point x="247" y="527" type="move" name="top"/>
    </contour>
    <contour>
      <point x="247" y="0" type="move" name="bottom"/>
    </contour>
  </outline>
</glyph>
<glyph name="ae" format="1">
  <advance width="692"/>
  <unicode hex="00E6"/>
  <outline>
    <contour>
      <point x="177" y="-11"/>
      <point x="242" y="17"/>
      <point x="294" y="59" type="curve"/>
      <point x="324" y="13"/>
      <point x="374" y="-11"/>
      <point x="442" y="-11" type="curve" smooth="yes"/>
      <point x="518" y="-11"/>
      <point x="597" y="25"/>
      <point x="639" y="78" type="curve"/>
      <point x="627" y="124" type="line"/>
      <point x="590" y="99"/>
      <point x="539" y="86"/>
      <point x="483" y="86" type="curve" smooth="yes"/>
      <point x="422" y="86"/>
      <point x="389" y="112"/>
      <point x="379" y="171" type="curve"/>
      <point x="477" y="173"/>
      <point x="584" y="187"/>
      <point x="654" y="204" type="curve"/>
      <point x="654" y="345"/>
      <point x="595" y="418"/>
      <point x="482" y="418" type="curve" smooth="yes"/>
      <point x="429" y="418"/>
      <point x="382" y="403"/>
      <point x="346" y="376" type="curve"/>
      <point x="321" y="403"/>
      <point x="282" y="418"/>
      <point x="229" y="418" type="curve" smooth="yes"/>
      <point x="161" y="418"/>
      <point x="89" y="378"/>
      <point x="49" y="319" type="curve"/>
      <point x="57" y="273" type="line"/>
      <point x="91" y="296"/>
      <point x="139" y="310"/>
      <point x="183" y="310" type="curve" smooth="yes"/>
      <point x="247" y="310"/>
      <point x="261" y="281"/>
      <point x="261" y="219" type="curve"/>
      <point x="106" y="207"/>
      <point x="30" y="163"/>
      <point x="30" y="83" type="curve" smooth="yes"/>
      <point x="30" y="28"/>
      <point x="71" y="-11"/>
      <point x="127" y="-11" type="curve" smooth="yes"/>
    </contour>
    <contour>
      <point x="159" y="61"/>
      <point x="148" y="83"/>
      <point x="148" y="103" type="curve" smooth="yes"/>
      <point x="148" y="144"/>
      <point x="188" y="170"/>
      <point x="260" y="176" type="curve"/>
      <point x="261" y="146"/>
      <point x="266" y="118"/>
      <point x="275" y="95" type="curve"/>
      <point x="248" y="73"/>
      <point x="208" y="54"/>
      <point x="175" y="50" type="curve"/>
    </contour>
    <contour>
      <point x="374" y="280"/>
      <point x="396" y="335"/>
      <point x="434" y="359" type="curve"/>
      <point x="487" y="359"/>
      <point x="525" y="313"/>
      <point x="527" y="253" type="curve"/>
      <point x="491" y="236"/>
      <point x="430" y="222"/>
      <point x="374" y="216" type="curve"/>
    </contour>
    <contour>
      <point x="346" y="407" type="move" name="top"/>
    </contour>
    <contour>
      <point x="346" y="0" type="move" name="bottom"/>
    </contour>
  </outline>
</glyph>
<glyph name="dotlessi" format="1">
  <advance width="246"/>
  <unicode hex="0131"/>
  <outline>
    <contour>
      <point x="155" y="-9"/>
      <point x="189" y="0"/>
      <point x="216" y="27" type="curve"/>
      <point x="185" y="61"/>
      <point x="177" y="84"/>
      <point x="177" y="192" type="curve" smooth="yes"/>
      <point x="177" y="294"/>
      <point x="182" y="379"/>
      <point x="189" y="417" type="curve"/>
      <point x="141" y="417"/>
      <point x="100" y="413"/>
      <point x="52" y="397" type="curve"/>
      <point x="65" y="376"/>
      <point x="71" y="322"/>
      <point x="71" y="272" type="curve" smooth="yes"/>
      <point x="71" y="208"/>
      <point x="67" y="144"/>
      <point x="67" y="73" type="curve" smooth="yes"/>
      <point x="67" y="10"/>
      <point x="86" y="-9"/>
      <point x="134" y="-9" type="curve" smooth="yes"/>
    </contour>
    <contour>
      <point x="175" y="0" type="move" name="ogonek"/>
    </contour>
    <contour>
      <point x="129" y="0" type="move" name="bottom"/>
    </contour>
    <contour>
      <point x="124" y="407" type="move" name="top"/>
    </contour>
  </outline>
</glyph>
<glyph name="OE" format="1">
  <advance width="806"/>
  <unicode hex="0152"/>
  <outline>
    <contour>
      <point x="414" y="-6"/>
      <point x="475" y="4"/>
      <point x="562" y="4" type="curve" smooth="yes"/>
      <point x="632" y="4"/>
      <point x="704" y="2"/>
      <point x="753" y="-3" type="curve"/>
      <point x="766" y="17"/>
      <point x="774" y="78"/>
      <point x="774" y="118" type="curve"/>
      <point x="733" y="101"/>
      <point x="666" y="91"/>
      <point x="607" y="91" type="curve" smooth="yes"/>
      <point x="576" y="91"/>
      <point x="543" y="94"/>
      <point x="517" y="99" type="curve"/>
      <point x="516" y="126"/>
      <point x="514" y="194"/>
      <point x="514" y="229" type="curve"/>
      <point x="582" y="229"/>
      <point x="623" y="227"/>
      <point x="718" y="221" type="curve"/>
      <point x="720" y="237"/>
      <point x="722" y="253"/>
      <point x="722" y="266" type="curve" smooth="yes"/>
      <point x="722" y="281"/>
      <point x="720" y="296"/>
      <point x="718" y="310" type="curve"/>
      <point x="679" y="303"/>
      <point x="653" y="299"/>
      <point x="581" y="299" type="curve" smooth="yes"/>
      <point x="560" y="299"/>
      <point x="537" y="299"/>
      <point x="515" y="301" type="curve"/>
      <point x="516" y="344"/>
      <point x="517" y="388"/>
      <point x="520" y="426" type="curve"/>
      <point x="544" y="430"/>
      <point x="574" y="433"/>
      <point x="602" y="433" type="curve" smooth="yes"/>
      <point x="654" y="433"/>
      <point x="713" y="424"/>
      <point x="749" y="406" type="curve"/>
      <point x="762" y="425"/>
      <point x="770" y="487"/>
      <point x="770" y="527" type="curve"/>
      <point x="716" y="522"/>
      <point x="635" y="520"/>
      <point x="557" y="520" type="curve" smooth="yes"/>
      <point x="458" y="520"/>
      <point x="410" y="532"/>
      <point x="320" y="532" type="curve" smooth="yes"/>
      <point x="137" y="532"/>
      <point x="35" y="437"/>
      <point x="35" y="266" type="curve" smooth="yes"/>
      <point x="35" y="105"/>
      <point x="159" y="-6"/>
      <point x="340" y="-6" type="curve" smooth="yes"/>
    </contour>
    <contour>
      <point x="218" y="71"/>
      <point x="157" y="160"/>
      <point x="157" y="248" type="curve" smooth="yes"/>
      <point x="157" y="393"/>
      <point x="225" y="454"/>
      <point x="341" y="454" type="curve" smooth="yes"/>
      <point x="361" y="454"/>
      <point x="380" y="451"/>
      <point x="398" y="445" type="curve"/>
      <point x="401" y="408"/>
      <point x="402" y="359"/>
      <point x="402" y="300" type="curve" smooth="yes"/>
      <point x="402" y="228"/>
      <point x="400" y="144"/>
      <point x="396" y="77" type="curve"/>
      <point x="355" y="65"/>
      <point x="317" y="58"/>
      <point x="293" y="58" type="curve"/>
    </contour>
    <contour>
      <point x="403" y="527" type="move" name="top"/>
    </contour>
    <contour>
      <point x="403" y="0" type="move" name="bottom"/>
    </contour>
  </outline>
</glyph>
<glyph name="florin" format="1">
  <advance width="326"/>
  <unicode hex="0192"/>
  <outline>
    <contour>
      <point x="210" y="-39"/>
      <point x="205" y="118"/>
      <point x="205" y="281" type="curve" smooth="yes"/>
      <point x="205" y="451"/>
      <point x="212" y="495"/>
      <point x="240" y="516" type="curve"/>
      <point x="269" y="513"/>
      <point x="305" y="495"/>
      <point x="354" y="460" type="curve"/>
      <point x="369" y="485"/>
      <point x="383" y="543"/>
      <point x="383" y="571" type="curve"/>
      <point x="353" y="580"/>
      <point x="317" y="585"/>
      <point x="277" y="585" type="curve" smooth="yes"/>
      <point x="139" y="585"/>
      <point x="91" y="465"/>
      <point x="91" y="354" type="curve" smooth="yes"/>
      <point x="91" y="244"/>
      <point x="96" y="158"/>
      <point x="96" y="87" type="curve" smooth="yes"/>
      <point x="96" y="14"/>
      <point x="93" y="-46"/>
      <point x="81" y="-97" type="curve"/>
      <point x="123" y="-109"/>
      <point x="164" y="-114"/>
      <point x="217" y="-114" type="curve"/>
    </contour>
    <component base="uni0335" xOffset="-28" yOffset="70" xScale="0.943"/>
  </outline>
</glyph>
<glyph name="gravecomb" format="1">
  <advance width="218"/>
  <unicode hex="0300"/>
  <outline>
    <contour>
      <point x="218" y="497" type="line"/>
      <point x="166" y="520"/>
      <point x="121" y="573"/>
      <point x="115" y="618" type="curve"/>
      <point x="59" y="618"/>
      <point x="20" y="600"/>
      <point x="0" y="566" type="curve"/>
      <point x="42" y="516"/>
      <point x="125" y="479"/>
      <point x="208" y="467" type="curve"/>
    </contour>
    <contour>
      <point x="109" y="608" type="move" name="top"/>
    </contour>
    <contour>
      <point x="114" y="407" type="move" name="_top"/>
    </contour>
  </outline>
</glyph>
<glyph name="acutecomb" format="1">
  <advance width="218"/>
  <unicode hex="0301"/>
  <outline>
    <contour>
      <point x="93" y="479"/>
      <point x="176" y="516"/>
      <point x="218" y="566" type="curve"/>
      <point x="198" y="600"/>
      <point x="159" y="618"/>
      <point x="103" y="618" type="curve"/>
      <point x="97" y="573"/>
      <point x="52" y="520"/>
      <point x="0" y="497" type="curve"/>
      <point x="10" y="467" type="line"/>
    </contour>
    <contour>
      <point x="109" y="608" type="move" name="top"/>
    </contour>
    <contour>
      <point x="94" y="407" type="move" name="_top"/>
    </contour>
  </outline>
</glyph>
<glyph name="uni0302" format="1">
  <advance width="285"/>
  <unicode hex="0302"/>
  <outline>
    <contour>
      <point x="124" y="554" type="line"/>
      <point x="177" y="476" type="line"/>
      <point x="219" y="476"/>
      <point x="254" y="480"/>
      <point x="285" y="490" type="curve"/>
      <point x="260" y="517"/>
      <point x="225" y="567"/>
      <point x="197" y="617" type="curve"/>
      <point x="155" y="617"/>
      <point x="120" y="614"/>
      <point x="90" y="603" type="curve"/>
      <point x="66" y="568"/>
      <point x="29" y="518"/>
      <point x="0" y="484" type="curve"/>
      <point x="31" y="478"/>
      <point x="50" y="476"/>
      <point x="74" y="476" type="curve"/>
    </contour>
    <contour>
      <point x="142" y="617" type="move" name="top"/>
    </contour>
    <contour>
      <point x="142" y="407" type="move" name="_top"/>
    </contour>
  </outline>
</glyph>
<glyph name="uni0304" format="1">
  <advance width="294"/>
  <unicode hex="0304"/>
  <outline>
    <contour>
      <point x="40" y="504"/>
      <point x="98" y="511"/>
      <point x="148" y="511" type="curve" smooth="yes"/>
      <point x="187" y="511"/>
      <point x="226" y="510"/>
      <point x="270" y="507" type="curve"/>
      <point x="278" y="541"/>
      <point x="280" y="570"/>
      <point x="276" y="604" type="curve"/>
      <point x="253" y="597"/>
      <point x="196" y="590"/>
      <point x="146" y="590" type="curve" smooth="yes"/>
      <point x="106" y="590"/>
      <point x="67" y="591"/>
      <point x="24" y="594" type="curve"/>
      <point x="16" y="560"/>
      <point x="13" y="531"/>
      <point x="17" y="497" type="curve"/>
    </contour>
    <contour>
      <point x="147" y="608" type="move" name="top"/>
    </contour>
    <contour>
      <point x="147" y="407" type="move" name="_top"/>
    </contour>
  </outline>
</glyph>
<glyph name="uni0306" format="1">
  <advance width="289"/>
  <unicode hex="0306"/>
  <outline>
    <contour>
      <point x="217" y="480"/>
      <point x="269" y="530"/>
      <point x="269" y="604" type="curve"/>
      <point x="255" y="613"/>
      <point x="235" y="617"/>
      <point x="214" y="617" type="curve"/>
      <point x="214" y="569"/>
      <point x="194" y="541"/>
      <point x="164" y="541" type="curve" smooth="yes"/>
      <point x="134" y="541"/>
      <point x="116" y="569"/>
      <point x="116" y="617" type="curve"/>
      <point x="76" y="617"/>
      <point x="47" y="612"/>
      <point x="20" y="599" type="curve"/>
      <point x="20" y="528"/>
      <point x="72" y="480"/>
      <point x="145" y="480" type="curve" smooth="yes"/>
    </contour>
    <contour>
      <point x="145" y="612" type="move" name="top"/>
    </contour>
    <contour>
      <point x="145" y="407" type="move" name="_top"/>
    </contour>
  </outline>
</glyph>
<glyph name="uni0308" format="1">
  <advance width="390"/>
  <unicode hex="0308"/>
  <outline>
    <contour>
      <point x="226" y="493"/>
      <point x="249" y="516"/>
      <point x="271" y="542" type="curve"/>
      <point x="245" y="564"/>
      <point x="221" y="587"/>
      <point x="200" y="614" type="curve"/>
      <point x="174" y="592"/>
      <point x="150" y="568"/>
      <point x="128" y="542" type="curve"/>
      <point x="155" y="521"/>
      <point x="178" y="497"/>
      <point x="200" y="471" type="curve"/>
    </contour>
    <contour>
      <point x="216" y="493"/>
      <point x="240" y="516"/>
      <point x="262" y="542" type="curve"/>
      <point x="235" y="564"/>
      <point x="212" y="587"/>
      <point x="190" y="614" type="curve"/>
      <point x="164" y="592"/>
      <point x="141" y="568"/>
      <point x="119" y="542" type="curve"/>
      <point x="145" y="521"/>
      <point x="169" y="497"/>
      <point x="190" y="471" type="curve"/>
    </contour>
    <contour>
      <point x="195" y="607" type="move" name="top"/>
    </contour>
    <contour>
      <point x="195" y="407" type="move" name="_top"/>
    </contour>
  </outline>
</glyph>
<glyph name="uni030A" format="1">
  <advance width="252"/>
  <unicode hex="030A"/>
  <outline>
    <contour>
      <point x="179" y="456"/>
      <point x="224" y="496"/>
      <point x="224" y="551" type="curve" smooth="yes"/>
      <point x="224" y="604"/>
      <point x="188" y="638"/>
      <point x="132" y="638" type="curve" smooth="yes"/>
      <point x="71" y="638"/>
      <point x="27" y="599"/>
      <point x="27" y="542" type="curve" smooth="yes"/>
      <point x="27" y="491"/>
      <point x="63" y="456"/>
      <point x="116" y="456" type="curve" smooth="yes"/>
    </contour>
    <contour>
      <point x="106" y="502"/>
      <point x="94" y="519"/>
      <point x="94" y="546" type="curve" smooth="yes"/>
      <point x="94" y="575"/>
      <point x="108" y="593"/>
      <point x="129" y="593" type="curve"/>
      <point x="148" y="586"/>
      <point x="158" y="569"/>
      <point x="158" y="546" type="curve" smooth="yes"/>
      <point x="158" y="518"/>
      <point x="146" y="502"/>
      <point x="126" y="502" type="curve" smooth="yes"/>
    </contour>
    <contour>
      <point x="127" y="645" type="move" name="top"/>
    </contour>
    <contour>
      <point x="127" y="407" type="move" name="_top"/>
    </contour>
  </outline>
</glyph>
<glyph name="uni0327" format="1">
  <advance width="206"/>
  <unicode hex="0327"/>
  <outline>
    <contour>
      <point x="169" y="-219"/>
      <point x="204" y="-190"/>
      <point x="204" y="-140" type="curve" smooth="yes"/>
      <point x="204" y="-91"/>
      <point x="166" y="-55"/>
      <point x="106" y="-42" type="curve"/>
      <point x="115" y="14" type="line"/>
      <point x="70" y="14" type="line"/>
      <point x="54" y="-50" type="line"/>
      <point x="101" y="-61"/>
      <point x="127" y="-84"/>
      <point x="127" y="-115" type="curve" smooth="yes"/>
      <point x="127" y="-144"/>
      <point x="106" y="-162"/>
      <point x="73" y="-162" type="curve" smooth="yes"/>
      <point x="52" y="-162"/>
      <point x="29" y="-154"/>
      <point x="12" y="-142" type="curve"/>
      <point x="1" y="-172" type="line"/>
      <point x="24" y="-200"/>
      <point x="67" y="-219"/>
      <point x="109" y="-219" type="curve" smooth="yes"/>
    </contour>
    <contour>
      <point x="91" y="0" type="move" name="_bottom"/>
    </contour>
  </outline>
</glyph>
<glyph name="uni0335" format="1">
  <advance width="408"/>
  <unicode hex="0335"/>
  <outline>
    <contour>
      <point x="90" y="225"/>
      <point x="118" y="229"/>
      <point x="201" y="229" type="curve" smooth="yes"/>
      <point x="257" y="229"/>
      <point x="327" y="226"/>
      <point x="364" y="221" type="curve"/>
      <point x="366" y="236"/>
      <point x="368" y="253"/>
      <point x="368" y="266" type="curve" smooth="yes"/>
      <point x="368" y="281"/>
      <point x="366" y="296"/>
      <point x="364" y="310" type="curve"/>
      <point x="320" y="303"/>
      <point x="290" y="299"/>
      <point x="208" y="299" type="curve" smooth="yes"/>
      <point x="152" y="299"/>
      <point x="82" y="302"/>
      <point x="45" y="307" type="curve"/>
      <point x="42" y="292"/>
      <point x="40" y="276"/>
      <point x="40" y="262" type="curve" smooth="yes"/>
      <point x="40" y="248"/>
      <point x="42" y="232"/>
      <point x="45" y="218" type="curve"/>
    </contour>
    <contour>
      <point x="205" y="264" type="move" name="_center"/>
    </contour>
  </outline>
</glyph>
<glyph name="uni0394" format="1">
  <advance width="531"/>
  <unicode hex="0394"/>
  <outline>
    <contour>
      <point x="92" y="3"/>
      <point x="179" y="5"/>
      <point x="266" y="5" type="curve" smooth="yes"/>
      <point x="353" y="5"/>
      <point x="440" y="3"/>
      <point x="527" y="0" type="curve"/>
      <point x="494" y="67"/>
      <point x="370" y="388"/>
      <point x="323" y="529" type="curve"/>
      <point x="305" y="532"/>
      <point x="287" y="534"/>
      <point x="268" y="534" type="curve" smooth="yes"/>
      <point x="249" y="534"/>
      <point x="230" y="532"/>
      <point x="209" y="529" type="curve"/>
      <point x="170" y="411"/>
      <point x="45" y="83"/>
      <point x="4" y="0" type="curve"/>
    </contour>
    <contour>
      <point x="207" y="85"/>
      <point x="159" y="85"/>
      <point x="119" y="87" type="curve"/>
      <point x="154" y="184"/>
      <point x="206" y="321"/>
      <point x="241" y="404" type="curve"/>
      <point x="274" y="330"/>
      <point x="328" y="186"/>
      <point x="364" y="86" type="curve"/>
      <point x="334" y="85"/>
      <point x="301" y="85"/>
      <point x="266" y="85" type="curve" smooth="yes"/>
    </contour>
  </outline>
</glyph>
<glyph name="uni03BC" format="1">
  <advance width="494"/>
  <unicode hex="03BC"/>
  <outline>
    <contour>
      <point x="153" y="-179"/>
      <point x="186" y="-167"/>
      <point x="210" y="-143" type="curve"/>
      <point x="181" y="-106"/>
      <point x="173" y="-80"/>
      <point x="171" y="10" type="curve"/>
      <point x="189" y="3"/>
      <point x="204" y="0"/>
      <point x="224" y="0" type="curve" smooth="yes"/>
      <point x="264" y="0"/>
      <point x="305" y="20"/>
      <point x="321" y="42" type="curve"/>
      <point x="330" y="15"/>
      <point x="352" y="0"/>
      <point x="383" y="0" type="curve" smooth="yes"/>
      <point x="407" y="0"/>
      <point x="435" y="11"/>
      <point x="464" y="32" type="curve"/>
      <point x="434" y="59"/>
      <point x="425" y="82"/>
      <point x="425" y="132" type="curve" smooth="yes"/>
      <point x="425" y="171"/>
      <point x="431" y="321"/>
      <point x="437" y="417" type="curve"/>
      <point x="389" y="417"/>
      <point x="358" y="412"/>
      <point x="315" y="397" type="curve"/>
      <point x="315" y="113" type="line"/>
      <point x="292" y="96"/>
      <point x="264" y="87"/>
      <point x="231" y="87" type="curve" smooth="yes"/>
      <point x="189" y="87"/>
      <point x="172" y="107"/>
      <point x="172" y="153" type="curve" smooth="yes"/>
      <point x="172" y="416" type="line"/>
      <point x="123" y="416"/>
      <point x="85" y="410"/>
      <point x="47" y="397" type="curve"/>
      <point x="60" y="369"/>
      <point x="66" y="323"/>
      <point x="66" y="257" type="curve" smooth="yes"/>
      <point x="66" y="103"/>
      <point x="60" y="-14"/>
      <point x="60" y="-96" type="curve" smooth="yes"/>
      <point x="60" y="-150"/>
      <point x="82" y="-179"/>
      <point x="128" y="-179" type="curve" smooth="yes"/>
    </contour>
  </outline>
</glyph>
<glyph name="pi" format="1">
  <advance width="554"/>
  <unicode hex="03C0"/>
  <outline>
    <contour>
      <point x="179" y="-6"/>
      <point x="200" y="-4"/>
      <point x="222" y="-1" type="curve"/>
      <point x="211" y="22"/>
      <point x="206" y="80"/>
      <point x="206" y="176" type="curve" smooth="yes"/>
      <point x="206" y="216"/>
      <point x="207" y="263"/>
      <point x="209" y="305" type="curve"/>
      <point x="345" y="305" type="line"/>
      <point x="346" y="282"/>
      <point x="347" y="258"/>
      <point x="347" y="229" type="curve" smooth="yes"/>
      <point x="347" y="152"/>
      <point x="341" y="53"/>
      <point x="337" y="-1" type="curve"/>
      <point x="363" y="-4"/>
      <point x="387" y="-6"/>
      <point x="407" y="-6" type="curve" smooth="yes"/>
      <point x="428" y="-6"/>
      <point x="449" y="-4"/>
      <point x="471" y="-1" type="curve"/>
      <point x="460" y="22"/>
      <point x="455" y="80"/>
      <point x="455" y="176" type="curve" smooth="yes"/>
      <point x="455" y="216"/>
      <point x="456" y="264"/>
      <point x="458" y="305" type="curve"/>
      <point x="498" y="300" type="line"/>
      <point x="519" y="339"/>
      <point x="531" y="382"/>
      <point x="531" y="426" type="curve"/>
      <point x="486" y="416"/>
      <point x="384" y="407"/>
      <point x="293" y="407" type="curve" smooth="yes"/>
      <point x="215" y="407"/>
      <point x="139" y="408"/>
      <point x="56" y="412" type="curve"/>
      <point x="34" y="373"/>
      <point x="22" y="330"/>
      <point x="22" y="286" type="curve"/>
      <point x="39" y="290"/>
      <point x="65" y="294"/>
      <point x="96" y="297" type="curve"/>
      <point x="98" y="277"/>
      <point x="98" y="254"/>
      <point x="98" y="229" type="curve" smooth="yes"/>
      <point x="98" y="152"/>
      <point x="92" y="53"/>
      <point x="87" y="-1" type="curve"/>
      <point x="114" y="-4"/>
      <point x="138" y="-6"/>
      <point x="158" y="-6" type="curve" smooth="yes"/>
    </contour>
  </outline>
</glyph>
<glyph name="fraction" format="1">
  <advance width="70"/>
  <unicode hex="2044"/>
  <outline>
    <contour>
      <point x="-62" y="-75"/>
      <point x="-43" y="-71"/>
      <point x="-26" y="-66" type="curve"/>
      <point x="37" y="145"/>
      <point x="109" y="356"/>
      <point x="192" y="567" type="curve"/>
      <point x="176" y="572"/>
      <point x="162" y="576"/>
      <point x="149" y="576" type="curve" smooth="yes"/>
      <point x="132" y="576"/>
      <point x="113" y="572"/>
      <point x="96" y="567" type="curve"/>
      <point x="33" y="356"/>
      <point x="-39" y="145"/>
      <point x="-122" y="-66" type="curve"/>
      <point x="-106" y="-71"/>
      <point x="-92" y="-75"/>
      <point x="-79" y="-75" type="curve" smooth="yes"/>
    </contour>
  </outline>
</glyph>
<glyph name="Euro" format="1">
  <advance width="515"/>
  <unicode hex="20AC"/>
  <outline>
    <contour>
      <point x="348" y="-11"/>
      <point x="426" y="25"/>
      <point x="469" y="78" type="curve"/>
      <point x="456" y="128" type="line"/>
      <point x="420" y="103"/>
      <point x="363" y="87"/>
      <point x="309" y="87" type="curve" smooth="yes"/>
      <point x="223" y="87"/>
      <point x="173" y="144"/>
      <point x="173" y="269" type="curve" smooth="yes"/>
      <point x="173" y="359"/>
      <point x="218" y="447"/>
      <point x="273" y="464" type="curve"/>
      <point x="306" y="464"/>
      <point x="368" y="431"/>
      <point x="416" y="388" type="curve"/>
      <point x="436" y="410"/>
      <point x="456" y="470"/>
      <point x="456" y="509" type="curve"/>
      <point x="420" y="525"/>
      <point x="373" y="533"/>
      <point x="317" y="533" type="curve" smooth="yes"/>
      <point x="162" y="533"/>
      <point x="54" y="413"/>
      <point x="54" y="241" type="curve" smooth="yes"/>
      <point x="54" y="79"/>
      <point x="132" y="-11"/>
      <point x="274" y="-11" type="curve" smooth="yes"/>
    </contour>
    <component base="uni0335" xOffset="-35" yOffset="71" xScale="0.976" yScale="0.976"/>
    <component base="uni0335" xOffset="-39" yOffset="-60" xScale="0.976" yScale="0.976"/>
    <contour>
      <point x="277" y="527" type="move" name="top"/>
    </contour>
    <contour>
      <point x="259" y="0" type="move" name="bottom"/>
    </contour>
  </outline>
</glyph>
<glyph name="emptyset" format="1">
  <advance width="595"/>
  <unicode hex="2205"/>
  <outline>
    <contour>
      <point x="446" y="-11"/>
      <point x="565" y="109"/>
      <point x="565" y="279" type="curve" smooth="yes"/>
      <point x="565" y="432"/>
      <point x="468" y="534"/>
      <point x="326" y="534" type="curve" smooth="yes"/>
      <point x="152" y="534"/>
      <point x="30" y="417"/>
      <point x="30" y="251" type="curve" smooth="yes"/>
      <point x="30" y="95"/>
      <point x="130" y="-11"/>
      <point x="278" y="-11" type="curve" smooth="yes"/>
    </contour>
    <contour>
      <point x="187" y="92"/>
      <point x="121" y="157"/>
      <point x="121" y="254" type="curve" smooth="yes"/>
      <point x="121" y="358"/>
      <point x="201" y="430"/>
      <point x="316" y="430" type="curve" smooth="yes"/>
      <point x="410" y="430"/>
      <point x="473" y="367"/>
      <point x="473" y="272" type="curve" smooth="yes"/>
      <point x="473" y="166"/>
      <point x="395" y="92"/>
      <point x="284" y="92" type="curve" smooth="yes"/>
    </contour>
    <component base="fraction" xOffset="263" yOffset="11"/>
  </outline>
</glyph>
<glyph name="summation" format="1">
  <advance width="526"/>
  <unicode hex="2211"/>
  <outline>
    <contour>
      <point x="453" y="34"/>
      <point x="463" y="77"/>
      <point x="461" y="121" type="curve"/>
      <point x="411" y="110"/>
      <point x="335" y="102"/>
      <point x="268" y="102" type="curve" smooth="yes"/>
      <point x="230" y="102"/>
      <point x="199" y="103"/>
      <point x="160" y="106" type="curve"/>
      <point x="401" y="286" type="line"/>
      <point x="348" y="325"/>
      <point x="300" y="373"/>
      <point x="246" y="440" type="curve"/>
      <point x="325" y="440"/>
      <point x="373" y="439"/>
      <point x="451" y="435" type="curve"/>
      <point x="470" y="474"/>
      <point x="480" y="517"/>
      <point x="478" y="561" type="curve"/>
      <point x="427" y="550"/>
      <point x="352" y="542"/>
      <point x="285" y="542" type="curve" smooth="yes"/>
      <point x="211" y="542"/>
      <point x="163" y="543"/>
      <point x="92" y="547" type="curve"/>
      <point x="73" y="507"/>
      <point x="63" y="464"/>
      <point x="65" y="421" type="curve"/>
      <point x="110" y="391"/>
      <point x="142" y="360"/>
      <point x="236" y="249" type="curve"/>
      <point x="152" y="189"/>
      <point x="81" y="128"/>
      <point x="57" y="92" type="curve"/>
      <point x="49" y="66"/>
      <point x="45" y="32"/>
      <point x="47" y="0" type="curve"/>
      <point x="241" y="0" type="line" smooth="yes"/>
      <point x="314" y="0"/>
      <point x="363" y="-1"/>
      <point x="434" y="-5" type="curve"/>
    </contour>
  </outline>
</glyph>
<glyph name="uni2219" format="1">
  <advance width="354"/>
  <unicode hex="2219"/>
  <outline>
    <contour>
      <point x="231" y="166"/>
      <point x="276" y="211"/>
      <point x="321" y="265" type="curve"/>
      <point x="267" y="310"/>
      <point x="221" y="355"/>
      <point x="177" y="410" type="curve"/>
      <point x="122" y="365"/>
      <point x="77" y="320"/>
      <point x="32" y="265" type="curve"/>
      <point x="87" y="221"/>
      <point x="132" y="175"/>
      <point x="177" y="121" type="curve"/>
    </contour>
  </outline>
</glyph>
<glyph name="radical" format="1">
  <advance width="470"/>
  <unicode hex="221A"/>
  <outline>
    <contour>
      <point x="302" y="27" type="line"/>
      <point x="351" y="200"/>
      <point x="443" y="495"/>
      <point x="496" y="647" type="curve"/>
      <point x="455" y="647"/>
      <point x="425" y="644"/>
      <point x="392" y="636" type="curve"/>
      <point x="408" y="594"/>
      <point x="365" y="432"/>
      <point x="253" y="98" type="curve"/>
      <point x="233" y="145"/>
      <point x="217" y="217"/>
      <point x="192" y="332" type="curve"/>
      <point x="133" y="332"/>
      <point x="87" y="325"/>
      <point x="40" y="311" type="curve"/>
      <point x="127" y="155"/>
      <point x="121" y="-9"/>
      <point x="210" y="-9" type="curve"/>
    </contour>
  </outline>
</glyph>
<glyph name="infinity" format="1">
  <advance width="623"/>
  <unicode hex="221E"/>
  <outline>
    <contour>
      <point x="224" y="52"/>
      <point x="268" y="88"/>
      <point x="297" y="148" type="curve"/>
      <point x="323" y="95"/>
      <point x="360" y="52"/>
      <point x="430" y="52" type="curve" smooth="yes"/>
      <point x="518" y="52"/>
      <point x="580" y="147"/>
      <point x="580" y="282" type="curve" smooth="yes"/>
      <point x="580" y="395"/>
      <point x="528" y="471"/>
      <point x="449" y="471" type="curve" smooth="yes"/>
      <point x="400" y="471"/>
      <point x="358" y="437"/>
      <point x="328" y="381" type="curve"/>
      <point x="301" y="431"/>
      <point x="262" y="471"/>
      <point x="192" y="471" type="curve" smooth="yes"/>
      <point x="104" y="471"/>
      <point x="42" y="376"/>
      <point x="42" y="240" type="curve" smooth="yes"/>
      <point x="42" y="128"/>
      <point x="94" y="52"/>
      <point x="173" y="52" type="curve" smooth="yes"/>
    </contour>
    <contour>
      <point x="141" y="168"/>
      <point x="113" y="195"/>
      <point x="102" y="241" type="curve"/>
      <point x="102" y="307"/>
      <point x="129" y="355"/>
      <point x="174" y="355" type="curve" smooth="yes"/>
      <point x="227" y="355"/>
      <point x="246" y="288"/>
      <point x="270" y="218" type="curve"/>
      <point x="249" y="186"/>
      <point x="220" y="168"/>
      <point x="184" y="168" type="curve" smooth="yes"/>
    </contour>
    <contour>
      <point x="400" y="168"/>
      <point x="384" y="239"/>
      <point x="358" y="312" type="curve"/>
      <point x="379" y="339"/>
      <point x="406" y="355"/>
      <point x="439" y="355" type="curve" smooth="yes"/>
      <point x="482" y="355"/>
      <point x="510" y="327"/>
      <point x="521" y="281" type="curve"/>
      <point x="521" y="215"/>
      <point x="494" y="168"/>
      <point x="449" y="168" type="curve" smooth="yes"/>
    </contour>
  </outline>
</glyph>
<glyph name="fi" format="1">
  <advance width="527"/>
  <unicode hex="FB01"/>
  <outline>
    <contour>
      <point x="171" y="-82"/>
      <point x="202" y="-32"/>
      <point x="202" y="63" type="curve" smooth="yes"/>
      <point x="202" y="109"/>
      <point x="195" y="180"/>
      <point x="195" y="281" type="curve" smooth="yes"/>
      <point x="195" y="333" type="line"/>
      <point x="351" y="333" type="line"/>
      <point x="352" y="314"/>
      <point x="352" y="293"/>
      <point x="352" y="272" type="curve" smooth="yes"/>
      <point x="352" y="208"/>
      <point x="348" y="144"/>
      <point x="348" y="73" type="curve" smooth="yes"/>
      <point x="348" y="10"/>
      <point x="367" y="-9"/>
      <point x="415" y="-9" type="curve" smooth="yes"/>
      <point x="436" y="-9"/>
      <point x="470" y="0"/>
      <point x="497" y="27" type="curve"/>
      <point x="466" y="61"/>
      <point x="458" y="84"/>
      <point x="458" y="192" type="curve" smooth="yes"/>
      <point x="458" y="294"/>
      <point x="463" y="379"/>
      <point x="470" y="417" type="curve"/>
      <point x="426" y="417"/>
      <point x="388" y="413"/>
      <point x="343" y="397" type="curve"/>
      <point x="197" y="397" type="line"/>
      <point x="201" y="474"/>
      <point x="210" y="501"/>
      <point x="230" y="516" type="curve"/>
      <point x="268" y="513"/>
      <point x="315" y="491"/>
      <point x="379" y="450" type="curve"/>
      <point x="396" y="475"/>
      <point x="413" y="533"/>
      <point x="413" y="561" type="curve"/>
      <point x="371" y="577"/>
      <point x="322" y="585"/>
      <point x="267" y="585" type="curve" smooth="yes"/>
      <point x="171" y="585"/>
      <point x="99" y="515"/>
      <point x="82" y="407" type="curve"/>
      <point x="62" y="393"/>
      <point x="41" y="380"/>
      <point x="17" y="368" type="curve"/>
      <point x="17" y="338"/>
      <point x="27" y="331"/>
      <point x="82" y="330" type="curve"/>
      <point x="97" y="-13"/>
      <point x="91" y="-65"/>
      <point x="40" y="-137" type="curve"/>
      <point x="65" y="-159" type="line"/>
    </contour>
    <contour>
      <point x="461" y="0" type="move" name="ogonek"/>
    </contour>
    <contour>
      <point x="150" y="0" type="move" name="bottom"/>
    </contour>
    <contour>
      <point x="150" y="407" type="move" name="top"/>
    </contour>
  </outline>
</glyph>
<glyph name="f_f" format="1">
  <advance width="561"/>
  <outline>
    <contour>
      <point x="171" y="-82"/>
      <point x="202" y="-32"/>
      <point x="202" y="63" type="curve" smooth="yes"/>
      <point x="202" y="109"/>
      <point x="195" y="180"/>
      <point x="195" y="281" type="curve" smooth="yes"/>
      <point x="195" y="333" type="line"/>
      <point x="349" y="333" type="line"/>
      <point x="364" y="-13"/>
      <point x="358" y="-65"/>
      <point x="307" y="-137" type="curve"/>
      <point x="332" y="-159" type="line"/>
      <point x="438" y="-82"/>
      <point x="469" y="-32"/>
      <point x="469" y="63" type="curve" smooth="yes"/>
      <point x="469" y="109"/>
      <point x="462" y="180"/>
      <point x="462" y="281" type="curve" smooth="yes"/>
      <point x="462" y="333" type="line"/>
      <point x="501" y="332"/>
      <point x="529" y="328"/>
      <point x="551" y="321" type="curve"/>
      <point x="563" y="349"/>
      <point x="568" y="372"/>
      <point x="568" y="404" type="curve"/>
      <point x="545" y="400"/>
      <point x="509" y="397"/>
      <point x="464" y="396" type="curve"/>
      <point x="468" y="474"/>
      <point x="477" y="501"/>
      <point x="497" y="516" type="curve"/>
      <point x="526" y="513"/>
      <point x="562" y="493"/>
      <point x="611" y="455" type="curve"/>
      <point x="626" y="480"/>
      <point x="640" y="538"/>
      <point x="640" y="566" type="curve"/>
      <point x="610" y="579"/>
      <point x="574" y="585"/>
      <point x="534" y="585" type="curve" smooth="yes"/>
      <point x="493" y="585"/>
      <point x="456" y="572"/>
      <point x="427" y="550" type="curve"/>
      <point x="379" y="573"/>
      <point x="325" y="585"/>
      <point x="267" y="585" type="curve" smooth="yes"/>
      <point x="171" y="585"/>
      <point x="99" y="515"/>
      <point x="82" y="407" type="curve"/>
      <point x="62" y="393"/>
      <point x="41" y="380"/>
      <point x="17" y="368" type="curve"/>
      <point x="17" y="338"/>
      <point x="27" y="331"/>
      <point x="82" y="330" type="curve"/>
      <point x="97" y="-13"/>
      <point x="91" y="-65"/>
      <point x="40" y="-137" type="curve"/>
      <point x="65" y="-159" type="line"/>
    </contour>
    <contour>
      <point x="203" y="464"/>
      <point x="215" y="487"/>
      <point x="240" y="501" type="curve"/>
      <point x="383" y="501" type="line"/>
      <point x="365" y="473"/>
      <point x="352" y="437"/>
      <point x="347" y="397" type="curve"/>
      <point x="198" y="397" type="line"/>
    </contour>
  </outline>
</glyph>
<glyph name="f_j" format="1">
  <advance width="527"/>
  <outline>
    <contour>
      <point x="411" y="-111"/>
      <point x="476" y="-63"/>
      <point x="476" y="63" type="curve" smooth="yes"/>
      <point x="476" y="110"/>
      <point x="473" y="129"/>
      <point x="473" y="172" type="curve" smooth="yes"/>
      <point x="473" y="257"/>
      <point x="475" y="374"/>
      <point x="480" y="417" type="curve"/>
      <point x="432" y="417"/>
      <point x="391" y="413"/>
      <point x="343" y="397" type="curve"/>
      <point x="197" y="397" type="line"/>
      <point x="201" y="474"/>
      <point x="210" y="501"/>
      <point x="230" y="516" type="curve"/>
      <point x="268" y="513"/>
      <point x="315" y="491"/>
      <point x="379" y="450" type="curve"/>
      <point x="396" y="475"/>
      <point x="413" y="533"/>
      <point x="413" y="561" type="curve"/>
      <point x="371" y="577"/>
      <point x="322" y="585"/>
      <point x="267" y="585" type="curve" smooth="yes"/>
      <point x="171" y="585"/>
      <point x="99" y="515"/>
      <point x="82" y="407" type="curve"/>
      <point x="62" y="393"/>
      <point x="41" y="380"/>
      <point x="17" y="368" type="curve"/>
      <point x="17" y="338"/>
      <point x="27" y="331"/>
      <point x="82" y="330" type="curve"/>
      <point x="97" y="-13"/>
      <point x="91" y="-65"/>
      <point x="40" y="-137" type="curve"/>
      <point x="65" y="-159" type="line"/>
      <point x="171" y="-82"/>
      <point x="202" y="-32"/>
      <point x="202" y="63" type="curve" smooth="yes"/>
      <point x="202" y="109"/>
      <point x="195" y="180"/>
      <point x="195" y="281" type="curve" smooth="yes"/>
      <point x="195" y="333" type="line"/>
      <point x="360" y="333" type="line"/>
      <point x="363" y="292"/>
      <point x="364" y="225"/>
      <point x="364" y="106" type="curve" smooth="yes"/>
      <point x="364" y="-48"/>
      <point x="331" y="-101"/>
      <point x="265" y="-161" type="curve"/>
      <point x="281" y="-189" type="line"/>
    </contour>
  </outline>
</glyph>
<glyph name="f_t" format="1">
  <advance width="593"/>
  <outline>
    <contour>
      <point x="171" y="-82"/>
      <point x="202" y="-32"/>
      <point x="202" y="63" type="curve" smooth="yes"/>
      <point x="202" y="118"/>
      <point x="195" y="163"/>
      <point x="195" y="333" type="curve"/>
      <point x="366" y="333" type="line"/>
      <point x="367" y="314"/>
      <point x="368" y="292"/>
      <point x="368" y="281" type="curve" smooth="yes"/>
      <point x="368" y="202"/>
      <point x="364" y="146"/>
      <point x="364" y="83" type="curve" smooth="yes"/>
      <point x="364" y="15"/>
      <point x="385" y="-9"/>
      <point x="441" y="-9" type="curve" smooth="yes"/>
      <point x="490" y="-9"/>
      <point x="542" y="16"/>
      <point x="569" y="53" type="curve"/>
      <point x="563" y="89" type="line"/>
      <point x="542" y="84"/>
      <point x="515" y="81"/>
      <point x="486" y="80" type="curve"/>
      <point x="479" y="120"/>
      <point x="474" y="180"/>
      <point x="474" y="252" type="curve" smooth="yes"/>
      <point x="474" y="281"/>
      <point x="475" y="307"/>
      <point x="477" y="333" type="curve"/>
      <point x="514" y="332"/>
      <point x="541" y="328"/>
      <point x="560" y="321" type="curve"/>
      <point x="572" y="349"/>
      <point x="577" y="372"/>
      <point x="577" y="404" type="curve"/>
      <point x="555" y="400"/>
      <point x="520" y="397"/>
      <point x="479" y="396" type="curve"/>
      <point x="478" y="416"/>
      <point x="476" y="442"/>
      <point x="474" y="466" type="curve"/>
      <point x="430" y="469" type="line"/>
      <point x="395" y="414"/>
      <point x="344" y="397"/>
      <point x="299" y="397" type="curve" smooth="yes"/>
      <point x="197" y="397" type="line"/>
      <point x="201" y="471"/>
      <point x="209" y="500"/>
      <point x="230" y="516" type="curve"/>
      <point x="259" y="513"/>
      <point x="295" y="495"/>
      <point x="344" y="460" type="curve"/>
      <point x="358" y="485"/>
      <point x="373" y="543"/>
      <point x="373" y="571" type="curve"/>
      <point x="341" y="580"/>
      <point x="305" y="585"/>
      <point x="267" y="585" type="curve" smooth="yes"/>
      <point x="171" y="585"/>
      <point x="99" y="516"/>
      <point x="81" y="407" type="curve"/>
      <point x="62" y="394"/>
      <point x="42" y="381"/>
      <point x="17" y="368" type="curve"/>
      <point x="17" y="337"/>
      <point x="28" y="331"/>
      <point x="82" y="330" type="curve"/>
      <point x="97" y="-8"/>
      <point x="92" y="-64"/>
      <point x="40" y="-137" type="curve"/>
      <point x="65" y="-159" type="line"/>
    </contour>
  </outline>
</glyph>
<glyph name="four.dnom" format="1">
  <advance width="356"/>
  <outline>
    <contour>
      <point x="248" y="-3"/>
      <point x="262" y="-2"/>
      <point x="276" y="0" type="curve"/>
      <point x="274" y="16"/>
      <point x="272" y="36"/>
      <point x="272" y="52" type="curve"/>
      <point x="292" y="52" type="line"/>
      <point x="304" y="73"/>
      <point x="310" y="101"/>
      <point x="310" y="127" type="curve"/>
      <point x="300" y="124"/>
      <point x="286" y="122"/>
      <point x="271" y="120" type="curve"/>
      <point x="271" y="179" type="line"/>
      <point x="255" y="181"/>
      <point x="239" y="182"/>
      <point x="226" y="182" type="curve"/>
      <point x="186" y="118" type="line"/>
      <point x="111" y="118" type="line"/>
      <point x="171" y="197"/>
      <point x="220" y="246"/>
      <point x="247" y="268" type="curve"/>
      <point x="216" y="280"/>
      <point x="186" y="284"/>
      <point x="147" y="284" type="curve"/>
      <point x="88" y="200"/>
      <point x="37" y="118"/>
      <point x="37" y="84" type="curve" smooth="yes"/>
      <point x="37" y="65"/>
      <point x="45" y="51"/>
      <point x="58" y="41" type="curve"/>
      <point x="80" y="49"/>
      <point x="112" y="52"/>
      <point x="186" y="52" type="curve"/>
      <point x="186" y="35"/>
      <point x="185" y="17"/>
      <point x="184" y="0" type="curve"/>
      <point x="202" y="-2"/>
      <point x="219" y="-3"/>
      <point x="234" y="-3" type="curve" smooth="yes"/>
    </contour>
  </outline>
</glyph>
<glyph name="nine.dnom" format="1">
  <advance width="355"/>
  <outline>
    <contour>
      <point x="250" y="-6"/>
      <point x="309" y="53"/>
      <point x="309" y="149" type="curve" smooth="yes"/>
      <point x="309" y="227"/>
      <point x="257" y="277"/>
      <point x="175" y="277" type="curve" smooth="yes"/>
      <point x="100" y="277"/>
      <point x="48" y="235"/>
      <point x="48" y="174" type="curve" smooth="yes"/>
      <point x="48" y="121"/>
      <point x="89" y="86"/>
      <point x="150" y="86" type="curve" smooth="yes"/>
      <point x="176" y="86"/>
      <point x="202" y="94"/>
      <point x="225" y="110" type="curve"/>
      <point x="220" y="65"/>
      <point x="193" y="41"/>
      <point x="147" y="41" type="curve" smooth="yes"/>
      <point x="112" y="41"/>
      <point x="80" y="54"/>
      <point x="63" y="74" type="curve"/>
      <point x="55" y="53"/>
      <point x="51" y="35"/>
      <point x="51" y="18" type="curve"/>
      <point x="81" y="2"/>
      <point x="113" y="-6"/>
      <point x="151" y="-6" type="curve" smooth="yes"/>
    </contour>
    <contour>
      <point x="151" y="123"/>
      <point x="132" y="141"/>
      <point x="132" y="170" type="curve" smooth="yes"/>
      <point x="132" y="199"/>
      <point x="149" y="217"/>
      <point x="175" y="217" type="curve" smooth="yes"/>
      <point x="205" y="217"/>
      <point x="222" y="192"/>
      <point x="225" y="147" type="curve"/>
      <point x="212" y="136"/>
      <point x="197" y="128"/>
      <point x="180" y="123" type="curve"/>
    </contour>
  </outline>
</glyph>
<glyph name="one.dnom" format="1">
  <advance width="356"/>
  <outline>
    <contour>
      <point x="218" y="-3"/>
      <point x="234" y="-2"/>
      <point x="249" y="0" type="curve"/>
      <point x="244" y="52"/>
      <point x="242" y="104"/>
      <point x="242" y="157" type="curve" smooth="yes"/>
      <point x="242" y="196"/>
      <point x="243" y="235"/>
      <point x="246" y="274" type="curve"/>
      <point x="228" y="276"/>
      <point x="213" y="277"/>
      <point x="199" y="277" type="curve"/>
      <point x="179" y="259"/>
      <point x="112" y="219"/>
      <point x="73" y="201" type="curve"/>
      <point x="82" y="183"/>
      <point x="90" y="167"/>
      <point x="103" y="149" type="curve"/>
      <point x="162" y="184" type="line"/>
      <point x="162" y="147" type="line" smooth="yes"/>
      <point x="162" y="103"/>
      <point x="160" y="42"/>
      <point x="156" y="0" type="curve"/>
      <point x="174" y="-2"/>
      <point x="190" y="-3"/>
      <point x="204" y="-3" type="curve" smooth="yes"/>
    </contour>
  </outline>
</glyph>
<glyph name="seven.dnom" format="1">
  <advance width="355"/>
  <outline>
    <contour>
      <point x="283" y="183" type="line" smooth="yes"/>
      <point x="297" y="208"/>
      <point x="303" y="229"/>
      <point x="303" y="245" type="curve" smooth="yes"/>
      <point x="303" y="257"/>
      <point x="297" y="274"/>
      <point x="285" y="284" type="curve"/>
      <point x="267" y="274"/>
      <point x="237" y="268"/>
      <point x="178" y="268" type="curve" smooth="yes"/>
      <point x="123" y="268"/>
      <point x="77" y="270"/>
      <point x="55" y="274" type="curve"/>
      <point x="55" y="247"/>
      <point x="63" y="214"/>
      <point x="75" y="192" type="curve"/>
      <point x="87" y="199"/>
      <point x="105" y="201"/>
      <point x="132" y="201" type="curve" smooth="yes"/>
      <point x="225" y="201" type="line"/>
      <point x="159" y="101"/>
      <point x="107" y="40"/>
      <point x="78" y="13" type="curve"/>
      <point x="109" y="1"/>
      <point x="139" y="-3"/>
      <point x="178" y="-3" type="curve"/>
    </contour>
  </outline>
</glyph>
<glyph name="six.dnom" format="1">
  <advance width="356"/>
  <outline>
    <contour>
      <point x="253" y="-5"/>
      <point x="307" y="33"/>
      <point x="307" y="87" type="curve" smooth="yes"/>
      <point x="307" y="139"/>
      <point x="266" y="174"/>
      <point x="205" y="174" type="curve" smooth="yes"/>
      <point x="179" y="174"/>
      <point x="154" y="167"/>
      <point x="131" y="152" type="curve"/>
      <point x="139" y="188"/>
      <point x="157" y="211"/>
      <point x="186" y="221" type="curve"/>
      <point x="204" y="221"/>
      <point x="237" y="205"/>
      <point x="263" y="184" type="curve"/>
      <point x="277" y="200"/>
      <point x="291" y="239"/>
      <point x="291" y="265" type="curve"/>
      <point x="270" y="273"/>
      <point x="243" y="277"/>
      <point x="212" y="277" type="curve" smooth="yes"/>
      <point x="108" y="277"/>
      <point x="45" y="221"/>
      <point x="45" y="126" type="curve" smooth="yes"/>
      <point x="45" y="48"/>
      <point x="98" y="-5"/>
      <point x="178" y="-5" type="curve" smooth="yes"/>
    </contour>
    <contour>
      <point x="147" y="40"/>
      <point x="128" y="69"/>
      <point x="127" y="114" type="curve"/>
      <point x="140" y="124"/>
      <point x="156" y="132"/>
      <point x="172" y="137" type="curve"/>
      <point x="203" y="137"/>
      <point x="223" y="119"/>
      <point x="223" y="91" type="curve" smooth="yes"/>
      <point x="223" y="60"/>
      <point x="206" y="40"/>
      <point x="180" y="40" type="curve" smooth="yes"/>
    </contour>
  </outline>
</glyph>
<glyph name="two.dnom" format="1">
  <advance width="356"/>
  <outline>
    <contour>
      <point x="302" y="13"/>
      <point x="307" y="50"/>
      <point x="307" y="77" type="curve"/>
      <point x="281" y="69"/>
      <point x="240" y="63"/>
      <point x="203" y="63" type="curve" smooth="yes"/>
      <point x="192" y="63"/>
      <point x="180" y="64"/>
      <point x="169" y="65" type="curve"/>
      <point x="248" y="106"/>
      <point x="294" y="155"/>
      <point x="294" y="204" type="curve" smooth="yes"/>
      <point x="294" y="248"/>
      <point x="248" y="277"/>
      <point x="178" y="277" type="curve" smooth="yes"/>
      <point x="137" y="277"/>
      <point x="91" y="269"/>
      <point x="56" y="257" type="curve"/>
      <point x="56" y="232"/>
      <point x="68" y="196"/>
      <point x="84" y="177" type="curve"/>
      <point x="118" y="201"/>
      <point x="155" y="218"/>
      <point x="181" y="223" type="curve"/>
      <point x="200" y="222"/>
      <point x="211" y="211"/>
      <point x="211" y="196" type="curve" smooth="yes"/>
      <point x="211" y="154"/>
      <point x="159" y="98"/>
      <point x="53" y="29" type="curve"/>
      <point x="53" y="0" type="line"/>
      <point x="118" y="4"/>
      <point x="264" y="2"/>
      <point x="296" y="-3" type="curve"/>
    </contour>
  </outline>
</glyph>
<glyph name="zero.dnom" format="1">
  <advance width="356"/>
  <outline>
    <contour>
      <point x="261" y="-6"/>
      <point x="327" y="56"/>
      <point x="327" y="145" type="curve" smooth="yes"/>
      <point x="327" y="224"/>
      <point x="272" y="277"/>
      <point x="193" y="277" type="curve" smooth="yes"/>
      <point x="96" y="277"/>
      <point x="28" y="216"/>
      <point x="28" y="130" type="curve" smooth="yes"/>
      <point x="28" y="50"/>
      <point x="84" y="-6"/>
      <point x="166" y="-6" type="curve" smooth="yes"/>
    </contour>
    <contour>
      <point x="139" y="63"/>
      <point x="114" y="96"/>
      <point x="114" y="147" type="curve" smooth="yes"/>
      <point x="114" y="194"/>
      <point x="143" y="231"/>
      <point x="184" y="231" type="curve"/>
      <point x="220" y="223"/>
      <point x="242" y="190"/>
      <point x="242" y="144" type="curve" smooth="yes"/>
      <point x="242" y="94"/>
      <point x="217" y="63"/>
      <point x="176" y="63" type="curve" smooth="yes"/>
    </contour>
  </outline>
</glyph>
